<svg width="64" height="60" viewBox="0 0 64 60" fill="none" xmlns="http://www.w3.org/2000/svg">
<path d="M21.875 23.2637C21.875 23.885 21.3713 24.3887 20.75 24.3887C20.1287 24.3887 19.625 23.885 19.625 23.2637C19.625 22.6424 20.1287 22.1387 20.75 22.1387C21.3713 22.1387 21.875 22.6424 21.875 23.2637ZM21.875 23.2637H20.75M33.125 23.2637C33.125 23.885 32.6213 24.3887 32 24.3887C31.3787 24.3887 30.875 23.885 30.875 23.2637C30.875 22.6424 31.3787 22.1387 32 22.1387C32.6213 22.1387 33.125 22.6424 33.125 23.2637ZM33.125 23.2637H32M44.375 23.2637C44.375 23.885 43.8713 24.3887 43.25 24.3887C42.6287 24.3887 42.125 23.885 42.125 23.2637C42.125 22.6424 42.6287 22.1387 43.25 22.1387C43.8713 22.1387 44.375 22.6424 44.375 23.2637ZM44.375 23.2637H43.25M2.75 32.2917C2.75 37.0949 6.12024 41.2758 10.8724 41.9746C14.1307 42.4536 17.4245 42.8236 20.75 43.0806V57.0137L33.3005 44.4632C33.9206 43.843 34.758 43.4904 35.6348 43.4687C41.5615 43.3219 47.3993 42.8171 53.1275 41.9749C57.8797 41.2762 61.25 37.0953 61.25 32.292V14.2353C61.25 9.43205 57.8797 5.25115 53.1275 4.55248C46.2321 3.53871 39.1778 3.01367 32.0009 3.01367C24.8233 3.01367 17.7684 3.5388 10.8724 4.55275C6.12025 5.25148 2.75 9.43235 2.75 14.2356V32.2917Z" stroke="#0F172A" stroke-width="4.5" stroke-linecap="round" stroke-linejoin="round"/>
</svg>
