<svg width="60" height="60" viewBox="0 0 60 60" fill="none" xmlns="http://www.w3.org/2000/svg">
<path d="M30 12V48M21 39.5454L23.6366 41.523C27.1512 44.159 32.8495 44.159 36.3641 41.523C39.8786 38.8869 39.8786 34.6131 36.3641 31.977C34.6066 30.6589 32.3031 29.9999 29.9997 30C27.8249 30.0001 25.6506 29.3412 23.9913 28.023C20.673 25.387 20.673 21.1131 23.9913 18.4771C27.3096 15.8411 32.6896 15.8411 36.0079 18.4771L37.2526 19.4659M57 30C57 44.9117 44.9117 57 30 57C15.0883 57 3 44.9117 3 30C3 15.0883 15.0883 3 30 3C44.9117 3 57 15.0883 57 30Z" stroke="#0F172A" stroke-width="4.5" stroke-linecap="round" stroke-linejoin="round"/>
</svg>
