<svg width="64" height="64" viewBox="0 0 64 64" fill="none" xmlns="http://www.w3.org/2000/svg">
<path d="M2.75 16.2983C2.75 41.1512 22.8972 61.2983 47.75 61.2983H54.5C58.2279 61.2983 61.25 58.2763 61.25 54.5483V50.4335C61.25 48.8848 60.196 47.5348 58.6936 47.1592L45.424 43.8418C44.1066 43.5125 42.7202 44.0047 41.9054 45.0911L38.9948 48.9719C38.1501 50.0983 36.689 50.5963 35.367 50.1121C25.4462 46.4779 17.5705 38.6022 13.9363 28.6813C13.452 27.3593 13.9501 25.8983 15.0764 25.0535L18.9573 22.1429C20.0436 21.3281 20.5358 19.9417 20.2065 18.6243L16.8891 5.35478C16.5135 3.85234 15.1636 2.79834 13.6149 2.79834H9.5C5.77208 2.79834 2.75 5.82042 2.75 9.54834V16.2983Z" stroke="#0F172A" stroke-width="4.5" stroke-linecap="round" stroke-linejoin="round"/>
</svg>
