<svg width="64" height="64" viewBox="0 0 64 64" fill="none" xmlns="http://www.w3.org/2000/svg">
<path d="M38.75 25.2983V11.7983M38.75 25.2983L52.25 25.2983M38.75 25.2983L56.75 7.29834M47.75 61.2983C22.8972 61.2983 2.75 41.1512 2.75 16.2983V9.54834C2.75 5.82042 5.77208 2.79834 9.5 2.79834H13.6149C15.1636 2.79834 16.5135 3.85234 16.8891 5.35478L20.2065 18.6243C20.5358 19.9417 20.0436 21.3281 18.9573 22.1429L15.0764 25.0535C13.9501 25.8983 13.452 27.3593 13.9363 28.6813C17.5705 38.6022 25.4462 46.4779 35.367 50.1121C36.689 50.5963 38.1501 50.0983 38.9948 48.9719L41.9054 45.0911C42.7202 44.0047 44.1066 43.5125 45.424 43.8418L58.6936 47.1592C60.196 47.5348 61.25 48.8848 61.25 50.4335V54.5483C61.25 58.2763 58.2279 61.2983 54.5 61.2983H47.75Z" stroke="#0F172A" stroke-width="4.5" stroke-linecap="round" stroke-linejoin="round"/>
</svg>
