<svg width="72" height="73" viewBox="0 0 72 73" fill="none" xmlns="http://www.w3.org/2000/svg">
<path d="M30.15 13.7458C30.15 11.1363 28.0346 9.02084 25.425 9.02084C22.8155 9.02084 20.7 11.1363 20.7 13.7458L20.7 22.7458M30.15 13.7458L30.1501 9.24584C30.1501 6.6363 32.2655 4.52084 34.8751 4.52084C37.4846 4.52084 39.6001 6.6363 39.6001 9.24584L39.6001 13.7458M30.15 13.7458L30.375 31.5208M39.6001 33.7708V13.7458M39.6001 13.7458C39.6001 11.1363 41.7155 9.02084 44.3251 9.02084C46.9346 9.02084 49.0501 11.1363 49.0501 13.7458V45.0208M20.7 22.7458C20.7 20.1363 18.5845 18.0208 15.975 18.0208C13.3655 18.0208 11.25 20.1363 11.25 22.7458V47.2708C11.25 58.4546 20.3162 67.5208 31.5 67.5208H37.5536C41.7308 67.5208 45.7369 65.8615 48.6906 62.9078L53.8869 57.7114C56.8406 54.7577 58.5 50.7516 58.5 46.5745L58.5092 40.5027C58.5137 39.9836 58.7103 39.4808 59.1022 39.0889C60.9474 37.2437 60.9474 34.252 59.1022 32.4068C57.257 30.5615 54.2653 30.5615 52.42 32.4068C50.1946 34.6322 49.0733 37.5542 49.0592 40.4652M20.7 22.7458V36.0208M39.51 48.9749C40.6796 47.8053 42.0105 46.8951 43.431 46.2445C45.2102 45.4295 47.1301 45.0217 49.0501 45.0208M49.0558 45.0208H49.0501" stroke="#0F172A" stroke-width="4.5" stroke-linecap="round" stroke-linejoin="round"/>
</svg>
