<svg width="60" height="60" viewBox="0 0 60 60" fill="none" xmlns="http://www.w3.org/2000/svg">
<path d="M47.9446 50.1949C43.8363 44.7729 37.3272 41.2705 30 41.2705C22.6728 41.2705 16.1637 44.7729 12.0554 50.1949M47.9446 50.1949C53.5005 45.2495 57 38.0437 57 30.0205C57 15.1088 44.9117 3.02051 30 3.02051C15.0883 3.02051 3 15.1088 3 30.0205C3 38.0437 6.4995 45.2495 12.0554 50.1949M47.9446 50.1949C43.1745 54.4409 36.8885 57.0205 30 57.0205C23.1115 57.0205 16.8255 54.4409 12.0554 50.1949M39 23.2705C39 28.2411 34.9706 32.2705 30 32.2705C25.0294 32.2705 21 28.2411 21 23.2705C21 18.2999 25.0294 14.2705 30 14.2705C34.9706 14.2705 39 18.2999 39 23.2705Z" stroke="#0F172A" stroke-width="4.5" stroke-linecap="round" stroke-linejoin="round"/>
</svg>
