<svg width="50" height="64" viewBox="0 0 50 64" fill="none" xmlns="http://www.w3.org/2000/svg">
<path d="M19.375 2.75684H5.875C4.01104 2.75684 2.5 4.26787 2.5 6.13183V57.8818C2.5 59.7458 4.01104 61.2568 5.875 61.2568H44.125C45.989 61.2568 47.5 59.7458 47.5 57.8818V30.8818M19.375 2.75684H20.5C35.4117 2.75684 47.5 14.8451 47.5 29.7568V30.8818M19.375 2.75684C24.9669 2.75684 29.5 7.28995 29.5 12.8818V17.3818C29.5 19.2458 31.011 20.7568 32.875 20.7568H37.375C42.9669 20.7568 47.5 25.29 47.5 30.8818M16 41.0068L22.75 47.7568L34 32.0068" stroke="#0F172A" stroke-width="4.5" stroke-linecap="round" stroke-linejoin="round"/>
</svg>
