<?xml version="1.0" standalone="no"?>
<!DOCTYPE svg PUBLIC "-//W3C//DTD SVG 20010904//EN"
 "http://www.w3.org/TR/2001/REC-SVG-20010904/DTD/svg10.dtd">
<svg version="1.0" xmlns="http://www.w3.org/2000/svg"
 width="5000.000000pt" height="5000.000000pt" viewBox="0 0 5000.000000 5000.000000"
 preserveAspectRatio="xMidYMid meet">
<metadata>
Created by potrace 1.11, written by Peter Selinger 2001-2013
</metadata>
<g transform="translate(0.000000,5000.000000) scale(0.100000,-0.100000)"
fill="#000000" stroke="none">
<path d="M25260 49084 c-2080 -54 -4178 -718 -6016 -1904 -670 -432 -1312
-951 -1593 -1287 -350 -418 -609 -1466 -691 -2798 -67 -1096 -13 -2472 126
-3235 49 -266 93 -398 154 -457 62 -60 208 -123 377 -163 l53 -12 31 -96 c28
-89 29 -98 14 -107 -291 -172 -496 -386 -629 -659 -82 -169 -136 -352 -173
-586 -14 -90 -18 -174 -18 -385 1 -289 16 -441 68 -672 13 -57 22 -103 20
-103 -2 0 -1383 439 -3070 976 l-3066 976 -744 559 -744 560 -1807 293 c-994
162 -1808 293 -1810 292 -3 -3 -491 -2470 -489 -2472 1 0 731 -310 1622 -688
l1620 -687 815 32 815 32 4610 -1622 c2536 -893 4613 -1628 4618 -1634 4 -7
33 -55 64 -107 149 -251 369 -479 571 -591 l57 -32 49 -186 c240 -918 480
-1580 665 -1829 186 -250 948 -833 1696 -1297 105 -65 197 -125 206 -134 12
-12 23 -85 48 -311 37 -343 36 -334 15 -326 -9 3 -149 33 -312 66 -540 110
-758 139 -829 108 -15 -7 -90 -45 -165 -86 l-138 -73 -118 15 c-299 39 -747
62 -891 47 -104 -11 -187 -45 -347 -141 -296 -179 -931 -684 -1508 -1200 -82
-73 -146 -126 -143 -116 64 166 86 508 47 741 -74 454 -286 1026 -501 1355
-78 120 -260 303 -379 381 -328 216 -665 276 -1034 183 -168 -42 -272 -111
-341 -229 -112 -189 -130 -458 -69 -1025 62 -567 25 -1044 -112 -1461 l-24
-75 -118 -18 c-650 -101 -1007 -358 -1166 -837 -70 -211 -74 -483 -15 -969 26
-216 107 -704 167 -1005 l48 -240 -131 -205 c-797 -1245 -1213 -2223 -1182
-2780 20 -362 238 -686 561 -835 267 -124 617 -148 1081 -74 190 31 531 118
681 176 6 2 36 -30 68 -71 74 -96 257 -271 329 -314 171 -103 436 -166 747
-178 653 -27 1858 208 2630 513 412 162 647 324 734 505 66 139 80 208 80 423
1 150 -3 208 -18 275 -32 150 -97 329 -176 488 l-77 155 92 141 c51 78 108
170 128 206 l36 66 341 237 c187 130 344 238 349 240 5 1 53 -50 107 -113 148
-172 418 -437 819 -805 467 -428 542 -503 593 -603 55 -106 147 -324 238 -565
81 -215 308 -888 319 -948 6 -35 6 -36 -57 -74 -84 -52 -156 -106 -193 -145
l-30 -31 0 -152 1 -152 -67 -17 c-147 -36 -211 -117 -225 -287 l-6 -76 -132 0
c-72 0 -149 -3 -171 -7 -37 -7 -42 -5 -60 23 -32 50 -151 145 -229 183 -124
61 -218 80 -376 73 -105 -4 -155 -11 -225 -32 -287 -85 -484 -294 -555 -587
l-20 -83 20 -1050 c11 -577 21 -1070 23 -1094 l2 -44 55 -14 c141 -35 250
-119 250 -191 -1 -85 -69 -137 -230 -172 l-75 -16 -3 -297 -2 -296 59 -50 c33
-27 74 -57 90 -67 l31 -18 0 -194 0 -194 68 -67 c37 -37 90 -77 119 -91 l53
-25 -3 -325 -2 -325 -83 -230 c-319 -886 -816 -2659 -1282 -4575 -320 -1316
-635 -2720 -694 -3098 -3 -19 0 -23 16 -19 17 5 19 2 13 -21 -135 -526 -260
-1257 -301 -1767 -21 -263 -30 -940 -15 -1131 51 -624 220 -914 707 -1210 498
-301 1256 -525 2064 -608 519 -54 1160 -45 1714 24 619 76 1208 241 1565 439
126 69 128 74 199 327 156 555 244 1006 245 1259 1 115 -3 145 -31 260 -133
535 -565 1792 -854 2485 -56 134 -64 162 -61 205 34 472 185 1451 349 2258
276 1365 547 2319 910 3209 141 346 422 983 430 975 2 -2 -12 -105 -31 -228
-146 -943 -237 -1911 -296 -3154 -16 -342 -23 -1816 -10 -2155 l11 -284 -35
-131 c-91 -345 -129 -598 -128 -850 0 -150 4 -193 21 -257 36 -131 95 -223
170 -262 78 -40 448 -65 1692 -111 752 -28 926 -37 1310 -65 436 -33 851 -54
1580 -81 455 -16 1787 -23 2135 -10 626 23 953 61 1080 124 274 136 539 558
610 971 20 117 20 317 -1 409 -34 152 -116 277 -237 359 -100 68 -228 122
-537 226 -426 144 -687 244 -1073 411 -538 233 -868 407 -1324 701 -156 101
-159 103 -182 159 -248 591 -367 1008 -401 1411 -18 212 -23 793 -11 1265 26
995 60 1762 196 4355 35 679 72 1390 80 1580 l16 345 26 20 c113 86 181 146
205 180 25 36 28 53 37 175 19 251 33 822 29 1250 -3 411 -4 427 -25 472 -35
76 -129 129 -272 153 l-44 7 6 117 c4 64 16 271 26 461 21 363 44 833 61 1260
16 371 23 1375 12 1585 -5 99 -8 181 -6 183 1 2 291 -71 645 -162 906 -233
1487 -369 2064 -485 406 -82 439 -80 585 30 252 190 1005 1001 1859 2002 142
166 199 226 210 221 56 -21 2601 -876 2661 -893 215 -60 635 -138 862 -161 64
-7 154 -9 200 -6 46 4 94 7 108 8 14 1 81 -8 150 -20 169 -29 331 -42 535 -42
788 0 1512 258 2150 766 140 112 415 387 529 529 449 563 727 1234 801 1939
19 188 20 566 0 751 -84 792 -425 1517 -970 2060 -161 161 -305 278 -500 405
-163 107 -162 106 -207 165 -112 149 -641 474 -1114 685 l-141 63 -56 76 c-64
85 -162 271 -262 496 -198 444 -282 558 -487 665 -194 101 -454 117 -737 44
-100 -26 -111 -24 -111 22 0 61 -153 223 -346 367 -297 223 -618 387 -847 433
-198 40 -416 -22 -579 -165 l-47 -41 -6 57 c-4 32 -15 100 -25 151 -24 121
-68 191 -210 332 -368 369 -982 562 -1466 461 -214 -44 -357 -132 -845 -517
-310 -244 -312 -246 -330 -239 -13 5 -18 45 -27 221 -26 473 -83 734 -218
1014 -157 325 -340 519 -574 609 -189 73 -455 81 -592 18 -167 -76 -304 -287
-462 -707 -106 -281 -178 -460 -185 -460 -3 0 -384 128 -846 284 l-840 284 3
298 c2 218 7 319 19 374 31 157 175 564 373 1060 83 209 410 1002 416 1009 2
2 11 -5 21 -14 16 -17 18 -16 44 15 77 92 311 583 574 1205 111 262 285 698
285 714 0 6 2 11 5 11 3 0 76 -32 162 -71 1009 -453 2097 -803 2783 -896 189
-25 626 -25 788 0 231 36 421 101 569 193 95 59 215 177 266 261 64 105 79
162 84 310 6 146 -5 228 -42 336 -128 365 -604 769 -1365 1160 -107 56 -323
175 -480 265 -604 349 -1210 689 -1670 937 -250 135 -857 447 -888 456 -18 6
-25 94 -67 759 -113 1806 -203 2630 -352 3215 -71 279 -132 408 -256 541 -321
344 -1016 802 -1802 1189 -1444 710 -3057 1144 -4560 1224 -207 12 -627 19
-795 15z m7042 -7689 c12 2 15 -3 13 -18 -4 -19 -3 -20 8 -6 16 22 74 17 92
-7 9 -12 10 -20 3 -23 -6 -2 6 -18 27 -36 34 -31 37 -37 38 -93 1 -33 6 -58
10 -55 10 6 3 -59 -8 -78 -8 -12 -6 -12 8 0 15 12 17 11 17 -8 0 -12 -4 -20
-8 -17 -4 2 -8 -4 -8 -14 0 -12 5 -16 16 -12 13 5 13 4 0 -13 -8 -10 -10 -16
-4 -12 16 9 25 -55 10 -65 -8 -6 -8 -8 1 -8 7 0 10 -7 6 -16 -3 -9 -1 -19 4
-23 6 -3 13 -34 16 -69 4 -35 9 -67 12 -72 3 -5 -3 -14 -12 -20 -17 -11 -17
-11 0 -6 13 4 17 -1 19 -19 3 -49 7 -81 13 -115 13 -77 18 -117 19 -155 1 -33
-2 -39 -16 -37 -24 4 -23 -5 3 -19 15 -8 19 -8 15 0 -4 6 -2 11 4 11 8 0 10
-9 6 -26 -4 -14 -3 -31 3 -37 5 -7 8 -31 8 -55 -1 -23 1 -42 6 -42 11 0 8 -65
-4 -77 -8 -8 -7 -13 2 -18 8 -6 10 -4 4 5 -5 9 -4 11 4 6 6 -4 10 -26 8 -54
-3 -41 -6 -47 -25 -46 -12 1 -19 -3 -16 -7 3 -5 9 -7 14 -4 5 3 11 -4 15 -15
4 -11 11 -18 16 -15 5 4 9 2 9 -4 0 -20 -26 -17 -43 6 -17 21 -23 38 -26 65
-1 5 -4 7 -8 5 -5 -1 -9 2 -10 6 -1 5 -10 15 -20 22 -17 13 -17 14 -1 20 10 4
15 11 12 16 -3 5 0 9 6 9 6 0 8 5 4 11 -4 8 -11 5 -18 -9 -8 -16 -15 -19 -26
-12 -14 9 -7 14 14 11 5 -1 6 5 3 14 -4 8 -2 15 3 15 5 0 6 7 3 17 -5 12 -3
14 7 8 9 -5 11 -4 6 4 -4 6 -2 20 6 29 11 15 11 15 -2 6 -8 -7 -32 -10 -52 -9
-21 2 -35 -1 -33 -6 3 -4 13 -5 23 -2 15 5 15 4 -1 -8 -16 -13 -16 -15 4 -27
12 -8 18 -9 15 -3 -4 6 -3 18 2 27 13 23 22 4 11 -23 -8 -23 -29 -32 -29 -12
0 5 -4 8 -8 5 -5 -3 -15 7 -23 22 -8 15 -20 32 -27 38 -8 5 -12 18 -10 28 1
11 -4 21 -12 23 -13 4 -13 3 0 -7 10 -8 11 -10 2 -8 -8 2 -14 8 -15 13 -2 15
-21 33 -30 28 -4 -2 -6 -1 -5 4 1 4 -11 22 -28 38 l-30 30 -2 124 c-1 68 -4
173 -8 232 -5 82 -4 112 6 124 7 9 10 18 6 22 -3 3 -6 1 -6 -6 0 -7 -5 -9 -10
-6 -6 4 -9 9 -6 13 2 4 0 30 -3 59 -7 47 -6 51 8 40 13 -9 13 -8 -1 8 -10 13
-14 30 -11 48 3 15 1 27 -5 27 -5 0 -10 10 -10 23 0 12 -3 45 -7 72 -4 28 -8
61 -8 75 -1 14 -5 27 -8 30 -4 3 -10 24 -12 47 -3 23 -8 47 -12 52 -11 19 5
30 33 22 15 -5 35 -7 44 -6z m168 -62 c0 -13 -4 -23 -9 -23 -15 0 -26 23 -22
44 2 12 -1 16 -10 11 -8 -5 -10 -4 -5 3 11 18 46 -9 46 -35z m175 -1303 c3 -5
1 -10 -4 -10 -6 0 -11 5 -11 10 0 6 2 10 4 10 3 0 8 -4 11 -10z m-8030 -105
c33 -4 64 -11 70 -16 5 -6 4 -9 -3 -9 -7 0 -12 -4 -12 -10 0 -5 7 -10 15 -10
8 0 15 4 15 9 0 20 43 17 146 -10 60 -16 120 -31 133 -34 13 -3 32 -10 43 -16
10 -5 18 -7 18 -3 0 3 6 2 13 -3 11 -10 64 -26 69 -21 2 1 14 -4 27 -11 19
-11 21 -15 10 -23 -10 -7 -6 -8 14 -4 28 7 71 -9 63 -23 -3 -4 1 -8 9 -8 8 0
12 4 9 8 -2 4 14 0 36 -8 22 -9 37 -19 35 -23 -3 -4 3 -14 12 -21 14 -12 16
-12 8 0 -6 10 -4 12 6 6 7 -5 22 -10 32 -10 10 -1 23 -8 30 -15 9 -10 9 -11 0
-6 -7 4 -13 2 -13 -4 0 -6 10 -8 23 -5 18 5 26 1 36 -17 6 -13 9 -15 7 -5 -5
16 -4 16 19 1 14 -9 22 -21 18 -27 -4 -6 0 -8 10 -4 10 3 17 2 17 -3 0 -6 7
-10 15 -10 8 0 15 -4 15 -9 0 -6 -8 -8 -19 -6 -15 3 -18 -1 -13 -18 5 -20 6
-20 13 -1 7 19 8 19 9 -1 1 -19 2 -18 10 3 5 12 11 22 13 22 13 0 65 -49 59
-55 -4 -5 -2 -5 5 -2 14 9 82 -33 83 -51 0 -7 5 -10 10 -7 6 3 10 -1 10 -9 0
-9 5 -16 11 -16 5 0 7 6 3 13 -3 6 13 -8 36 -33 23 -25 38 -38 34 -30 -5 10 0
9 14 -4 18 -16 20 -22 9 -34 -10 -13 -9 -14 11 -3 18 9 22 9 22 -2 0 -7 -6
-19 -12 -27 -11 -12 -10 -12 3 -2 9 6 20 8 24 4 5 -4 5 0 0 8 -4 8 13 -5 39
-30 25 -24 44 -50 42 -57 -3 -7 1 -10 7 -7 34 13 81 -87 53 -109 -7 -5 -5 -7
4 -4 8 2 16 9 16 15 1 7 2 15 3 19 2 13 40 -30 56 -63 9 -19 19 -34 24 -34 4
0 18 -14 31 -32 14 -19 17 -29 9 -26 -10 4 -15 -1 -15 -13 0 -11 4 -19 9 -19
4 0 6 -4 3 -8 -2 -4 4 -19 15 -32 12 -15 17 -18 13 -7 -11 30 23 19 47 -15 13
-18 16 -28 8 -21 -12 10 -17 8 -29 -10 -12 -20 -12 -21 3 -9 10 9 17 10 22 2
3 -6 11 -7 17 -4 7 4 8 2 4 -5 -8 -12 3 -56 11 -47 8 8 33 -14 33 -28 0 -6 -7
-2 -15 8 -8 11 -15 17 -15 13 0 -4 -9 -3 -19 3 -13 6 -18 18 -16 31 3 16 0 19
-16 14 -18 -6 -54 17 -43 28 3 3 0 14 -8 26 -12 20 -37 24 -48 9 -3 -4 -20 5
-37 20 -17 15 -39 33 -49 40 -18 12 -18 12 1 3 16 -7 21 -6 21 7 0 13 -10 17
-45 17 -28 0 -45 5 -47 13 -1 7 0 8 3 2 2 -5 14 -10 26 -10 29 0 10 17 -26 24
-17 3 -25 1 -21 -5 3 -6 -8 -4 -24 5 -39 20 -47 33 -31 52 9 10 9 18 2 25 -8
8 -14 5 -22 -9 -6 -10 -7 -22 -4 -26 16 -16 -18 -4 -50 18 -19 13 -37 22 -40
20 -2 -3 -10 3 -18 13 -12 14 -12 16 0 8 9 -5 12 -4 7 3 -3 6 -17 9 -30 6 -28
-5 -58 20 -50 41 7 18 -12 20 -22 3 -4 -7 -3 -8 4 -4 8 5 10 1 5 -10 -4 -11
-8 -13 -11 -6 -2 7 -8 10 -13 7 -5 -4 -6 0 -4 7 4 9 -3 14 -17 15 -19 2 -20 0
-8 -8 12 -9 11 -9 -5 -4 -63 22 -74 28 -70 35 3 5 0 12 -6 16 -8 4 -9 3 -5 -4
4 -7 1 -12 -8 -12 -9 0 -16 5 -16 11 0 6 -7 9 -15 5 -11 -4 -15 1 -14 17 0 12
3 16 6 10 2 -7 9 -13 14 -13 6 0 8 4 5 9 -4 5 0 11 6 14 7 3 0 4 -17 3 -24 -1
-29 -6 -27 -21 3 -16 1 -17 -8 -8 -7 6 -20 9 -29 5 -14 -5 -14 -4 -2 11 11 15
11 17 -2 17 -8 0 -18 -6 -20 -12 -4 -10 -7 -10 -15 0 -5 7 -13 12 -18 11 -28
-5 -55 2 -48 13 5 8 2 9 -9 5 -10 -4 -30 -2 -45 4 -15 6 -43 13 -62 16 -43 6
-49 11 -30 23 20 13 33 12 25 -1 -4 -6 3 -5 14 3 21 13 21 13 2 16 -11 2 -30
-2 -43 -10 -29 -15 -34 -16 -83 -5 -58 12 -107 38 -101 53 7 19 -17 23 -32 5
-11 -14 -12 -13 -3 6 15 29 14 38 -2 24 -9 -7 -17 -7 -23 -1 -6 6 -10 3 -11
-10 -1 -13 3 -17 13 -13 9 3 14 0 12 -8 -2 -8 3 -13 10 -11 7 1 23 -4 35 -13
18 -12 19 -15 4 -15 -9 0 -17 3 -17 8 0 4 -10 8 -22 9 -52 4 -78 8 -78 14 0 3
-19 6 -42 6 -24 0 -58 2 -75 4 -38 5 -54 29 -20 30 12 0 16 3 9 6 -7 3 -20 1
-30 -3 -9 -4 -20 -6 -24 -6 -5 1 -8 -2 -8 -7 0 -8 -78 -7 -200 4 -78 8 -210 7
-244 0 -17 -3 -34 -1 -44 7 -12 10 -14 10 -8 1 4 -7 3 -13 -3 -13 -5 0 -13 5
-17 11 -4 8 -9 8 -17 0 -14 -14 -101 -15 -92 -1 7 12 -23 2 -44 -14 -12 -9
-13 -8 -6 4 5 9 1 8 -13 -4 -18 -15 -32 -18 -77 -13 -38 4 -53 2 -49 -5 4 -7
2 -8 -5 -4 -6 4 -19 2 -28 -6 -14 -11 -17 -11 -21 1 -3 10 -6 10 -12 1 -4 -7
-18 -14 -31 -16 -60 -10 -135 -27 -150 -34 -8 -4 -24 -3 -34 2 -13 8 -16 7
-11 -1 4 -6 5 -11 2 -11 -2 0 -11 -3 -20 -6 -10 -4 -16 -1 -16 9 0 10 -7 13
-20 10 -11 -3 -17 -9 -14 -14 3 -5 10 -7 15 -4 5 4 9 2 9 -3 0 -5 -15 -13 -32
-17 -18 -4 -35 -9 -38 -10 -3 -1 -12 -5 -20 -8 -50 -21 -69 -25 -72 -16 -2 6
-12 7 -22 3 -14 -5 -15 -9 -4 -15 10 -7 9 -9 -4 -10 -31 -3 -36 -4 -43 -11 -4
-4 -14 -4 -23 -1 -10 4 -13 2 -8 -5 5 -8 1 -10 -10 -5 -11 4 -15 3 -10 -5 5
-8 -2 -8 -25 0 -30 10 -31 12 -14 25 11 7 14 13 8 13 -14 0 -34 -25 -26 -33 3
-4 1 -7 -5 -7 -7 0 -12 -8 -12 -17 0 -10 -10 -23 -23 -29 -12 -6 -43 -23 -69
-37 -33 -19 -49 -24 -54 -15 -4 7 -3 8 4 4 8 -5 12 1 13 16 0 13 3 18 5 11 7
-15 56 -1 62 18 5 12 3 12 -11 0 -18 -14 -24 -2 -7 15 6 6 0 10 -17 12 -21 2
-24 -1 -15 -10 17 -17 15 -31 -3 -24 -9 3 -18 -1 -21 -9 -4 -8 -10 -13 -14
-10 -5 3 -7 -5 -4 -19 4 -25 -20 -44 -32 -24 -5 7 -2 8 6 3 8 -5 11 -4 7 3
-12 18 -42 7 -42 -16 0 -12 -3 -22 -7 -22 -5 0 -13 0 -19 0 -5 0 -7 5 -4 10 4
6 11 7 17 4 7 -4 8 -2 4 4 -5 9 -13 9 -28 1 -20 -11 -20 -12 -4 -24 9 -7 13
-16 8 -19 -6 -3 -13 1 -16 10 -8 20 -26 8 -26 -18 0 -16 -5 -19 -25 -16 -20 4
-23 3 -14 -8 7 -9 8 -14 1 -14 -6 0 -19 -3 -29 -7 -16 -6 -16 -5 -4 10 7 9 9
17 3 17 -14 0 -22 -26 -11 -37 5 -5 -1 -14 -14 -22 -19 -12 -21 -12 -12 0 6 8
-1 3 -14 -11 -13 -14 -20 -19 -17 -12 4 6 2 13 -3 13 -39 5 -46 2 -44 -15 2
-28 -15 -68 -27 -61 -5 3 -10 1 -10 -5 0 -6 -5 -8 -12 -3 -21 12 -39 12 -35 0
2 -7 9 -12 15 -12 7 0 11 -4 10 -10 -2 -5 -8 -9 -14 -9 -6 1 -10 -9 -8 -21 1
-13 -10 -41 -24 -62 -15 -21 -27 -42 -28 -48 0 -5 -2 -16 -2 -22 -1 -7 -9 -13
-17 -13 -8 0 -15 -5 -15 -11 0 -5 4 -8 9 -5 5 4 7 -4 3 -16 -3 -12 -7 -17 -10
-10 -2 6 -8 12 -13 12 -6 0 -8 -4 -5 -9 4 -5 0 -12 -6 -14 -8 -3 -6 -6 5 -6 9
-1 17 -5 17 -10 0 -4 -11 -7 -25 -6 -19 3 -25 -1 -25 -16 0 -11 -4 -18 -10
-14 -11 7 -3 33 18 58 14 15 13 17 -3 17 -10 0 -16 -3 -13 -6 4 -3 0 -17 -8
-32 -9 -19 -10 -30 -2 -39 15 -18 39 -17 32 2 -4 9 0 15 10 15 13 0 14 -4 3
-27 -6 -16 -18 -33 -27 -39 -11 -10 -12 -15 -2 -27 10 -12 10 -17 1 -23 -8 -5
-9 -3 -4 6 5 9 4 11 -4 6 -9 -6 -9 -11 1 -24 11 -14 10 -15 -6 -9 -16 6 -17 5
-7 -7 7 -8 8 -17 3 -20 -5 -3 -7 -16 -5 -28 2 -13 -1 -37 -8 -53 -7 -17 -14
-50 -15 -74 -2 -25 -6 -52 -10 -60 -7 -17 -15 -71 -15 -106 0 -15 -2 -17 -9
-6 -4 8 -4 24 0 37 7 17 6 22 -4 18 -9 -3 -12 -18 -9 -42 2 -20 1 -33 -3 -29
-4 4 -8 19 -10 34 -1 16 -7 46 -13 68 -7 29 -7 41 2 47 8 5 9 8 1 8 -16 0 -23
57 -10 71 8 9 8 10 -1 5 -9 -5 -13 0 -13 13 0 12 6 21 13 21 6 0 4 5 -5 11
-21 12 -24 37 -5 44 6 3 13 18 13 33 l1 27 -12 -29 c-11 -27 -12 -26 -18 34
-10 88 -8 226 4 285 5 28 12 68 15 90 7 58 73 187 92 180 11 -4 12 -2 4 8 -8
10 -6 16 9 25 11 7 17 18 13 24 -4 7 -3 8 4 4 7 -4 12 -1 12 9 0 9 9 19 20 22
11 3 20 14 20 25 0 10 5 16 10 13 6 -3 10 -2 10 3 0 18 42 62 52 56 6 -4 1
-12 -13 -20 -13 -7 -18 -13 -11 -14 7 0 11 -4 7 -9 -9 -15 15 -25 28 -12 9 9
8 11 -6 5 -13 -5 -16 -2 -11 10 3 9 9 14 13 11 5 -2 7 8 6 23 -2 20 10 39 44
75 25 26 51 47 59 47 7 0 10 4 7 10 -3 6 1 7 9 4 11 -4 19 2 25 19 5 13 32 39
60 58 28 18 51 37 51 42 0 5 9 7 21 4 12 -3 22 0 26 9 3 8 11 14 18 14 8 0 17
4 20 10 4 6 -1 7 -12 4 -10 -4 16 17 57 45 41 28 80 50 85 50 6 0 -1 -6 -14
-13 -21 -12 -22 -14 -5 -20 10 -4 16 -4 12 -1 -9 9 42 60 80 79 17 9 32 13 32
9 0 -5 5 0 11 10 9 15 13 16 27 5 9 -7 13 -8 9 -2 -4 7 0 17 8 24 8 7 15 9 15
5 0 -3 11 3 25 14 14 11 40 23 58 26 18 4 39 13 47 20 22 19 153 63 169 57 8
-2 11 0 8 5 -6 10 8 13 51 13 13 0 20 5 17 10 -3 6 1 7 9 4 9 -3 16 -1 16 6 0
6 10 10 24 8 13 -1 31 3 40 11 14 12 16 12 10 -3 -5 -13 0 -16 27 -16 l34 1
-25 14 c-16 9 -20 15 -10 16 15 1 25 3 45 9 6 1 15 3 20 4 6 1 28 7 50 13 125
36 507 51 720 28z m-16215 -300 c415 -74 774 -138 797 -142 35 -7 103 -55 385
-273 189 -145 503 -388 698 -538 195 -151 364 -283 375 -293 17 -15 2482 -804
5890 -1886 165 -52 351 -111 414 -131 l114 -37 24 -55 c14 -30 55 -118 93
-195 360 -739 940 -1206 1681 -1355 l56 -11 12 -87 c36 -248 132 -651 211
-887 26 -80 46 -145 44 -145 -2 0 -2036 706 -4521 1569 l-4518 1568 -810 -15
-810 -15 -670 276 c-667 274 -670 275 -669 304 0 15 31 201 68 413 37 212 130
752 207 1200 163 954 148 870 162 870 7 0 352 -61 767 -135z m19875 -311 c168
-45 277 -152 321 -317 19 -72 18 -105 -12 -242 -14 -66 -57 -271 -95 -455 -39
-184 -71 -342 -73 -350 -2 -8 -7 -39 -11 -68 -8 -60 -21 -58 -28 3 -3 32 -4
30 -4 -12 0 -29 5 -53 10 -53 5 0 6 -12 3 -27 -4 -16 -9 -44 -12 -63 -3 -19
-20 -119 -39 -222 -87 -473 -121 -744 -104 -835 15 -77 123 -334 297 -703 215
-457 245 -551 222 -692 -12 -77 -37 -109 -108 -141 -270 -121 -989 24 -1314
265 -52 38 -62 53 -97 133 -94 213 -186 479 -259 745 -118 431 -157 802 -150
1400 5 305 7 349 31 486 43 249 131 639 156 700 5 11 56 52 113 91 332 226
578 333 863 377 55 8 229 -3 290 -20z m-5025 -105 c12 -8 10 -9 -9 -4 -16 5
-21 4 -17 -4 4 -6 2 -11 -3 -11 -12 0 -14 13 -4 23 9 9 15 9 33 -4z m1290 -63
c395 -50 819 -194 1156 -395 199 -118 372 -270 435 -382 19 -33 46 -76 61 -96
15 -19 25 -39 22 -44 -3 -5 0 -45 7 -90 14 -94 3 -202 -37 -369 -25 -102 -35
-180 -36 -269 0 -24 -4 -38 -8 -31 -4 6 -6 -5 -5 -25 1 -20 5 -39 9 -42 9 -9
7 -25 -2 -19 -4 3 -9 -12 -9 -32 -1 -32 -4 -66 -19 -197 -2 -16 -6 -51 -8 -76
-5 -53 -96 -265 -168 -394 -28 -49 -52 -92 -54 -94 -1 -2 -76 26 -166 62 -332
133 -750 270 -1058 347 -47 12 -102 26 -122 31 l-38 10 98 50 c274 139 469
386 545 689 29 116 31 358 3 475 -47 207 -175 425 -324 553 -221 190 -459 273
-746 259 -256 -12 -471 -105 -658 -285 -229 -221 -340 -498 -325 -811 12 -252
104 -473 273 -660 l58 -64 -34 6 c-65 12 -425 56 -518 63 l-94 7 7 56 c4 31
10 60 13 66 9 14 4 50 -25 205 -21 110 -26 175 -30 350 -4 192 -3 226 17 319
11 58 35 139 51 182 121 315 586 575 1139 638 52 6 109 13 125 15 82 9 364 4
465 -8z m1361 -59 c-10 -9 -11 -8 -5 6 3 10 9 15 12 12 3 -3 0 -11 -7 -18z
m319 -127 c0 -5 -7 -6 -17 -3 -12 5 -14 3 -8 -8 4 -8 4 -11 0 -6 -5 4 -10 17
-12 28 -3 17 0 18 17 9 11 -6 20 -15 20 -20z m-3465 -32 c-5 -23 -25 -49 -25
-32 0 6 5 15 12 22 9 9 9 12 -2 12 -13 0 -13 2 0 10 20 13 19 13 15 -12z
m3430 -27 c10 -17 -12 -21 -25 -6 -10 12 -10 15 3 15 9 0 18 -4 22 -9z m-7463
-89 c146 -38 375 -133 318 -132 -8 0 -46 7 -85 16 -97 22 -292 29 -397 15
-105 -14 -238 -47 -253 -63 -7 -8 -6 -9 4 -3 10 6 12 4 7 -4 -5 -7 -14 -10
-22 -7 -17 7 -18 1 -1 -16 10 -10 11 -24 4 -58 -8 -37 -11 -41 -18 -25 -11 28
-11 37 0 30 12 -7 10 36 -2 53 -14 18 -34 15 -57 -10 -18 -20 -20 -20 -14 -4
6 16 4 18 -12 12 -10 -5 -38 -15 -61 -23 -24 -8 -43 -19 -43 -24 0 -5 -3 -8
-7 -8 -19 3 -27 -2 -16 -9 9 -5 6 -12 -10 -21 -19 -13 -21 -12 -10 1 7 8 10
18 6 21 -3 4 -12 -1 -20 -11 -8 -9 -12 -11 -8 -4 4 7 -12 4 -39 -10 -25 -12
-43 -25 -40 -29 2 -4 -1 -11 -7 -15 -8 -4 -9 -3 -5 4 11 19 -8 14 -45 -10 -19
-13 -46 -29 -60 -37 -52 -26 -138 -101 -189 -163 -28 -35 -55 -69 -60 -75 -27
-33 -83 -139 -111 -209 -162 -404 -142 -1008 57 -1739 26 -93 51 -176 57 -182
5 -7 7 -13 4 -13 -3 0 7 -39 24 -87 16 -47 27 -88 25 -90 -2 -3 -25 34 -51 81
-152 280 -282 670 -336 1011 -26 168 -36 480 -20 636 30 288 123 565 252 748
140 200 353 355 597 436 138 45 211 55 377 51 126 -4 169 -9 267 -34z m-471
-260 c-10 -26 -10 -25 -5 8 4 31 3 33 -9 18 -8 -10 -20 -18 -27 -18 -8 0 -3
10 11 23 30 28 46 11 30 -31z m-71 27 c13 -9 13 -10 -2 -6 -9 3 -19 1 -22 -6
-2 -7 -5 -4 -5 6 -1 20 7 21 29 6z m96 -116 c2 -51 2 -53 -5 -18 -4 22 -9 45
-11 50 -4 17 0 39 6 32 4 -3 8 -32 10 -64z m6291 -1 c17 -12 41 -43 54 -69 64
-133 -16 -310 -163 -359 -160 -53 -270 24 -269 188 0 109 88 225 195 258 54
16 148 7 183 -18z m-6308 -117 c1 -101 0 -108 -6 -101 -4 3 -7 42 -7 86 -1 43
2 76 6 72 4 -4 7 -29 7 -57z m11426 35 c2 -4 15 -5 28 -3 13 3 48 0 78 -6 30
-6 63 -13 74 -15 47 -8 75 -19 70 -26 -2 -4 3 -7 13 -7 42 0 52 -4 53 -20 0
-10 3 -13 5 -7 8 20 43 4 39 -18 -3 -15 -1 -17 9 -9 15 12 76 -4 76 -20 0 -5
9 -9 21 -9 11 0 17 -4 14 -10 -3 -5 0 -7 8 -4 8 3 20 -2 27 -11 8 -10 9 -15 1
-15 -6 0 -11 -5 -11 -11 0 -8 5 -7 16 2 12 10 17 10 23 0 5 -7 12 -13 17 -13
5 0 8 -5 6 -10 -2 -6 4 -8 12 -5 8 3 38 -18 75 -54 34 -32 62 -58 64 -56 1 1
30 -25 65 -58 38 -36 60 -65 57 -73 -6 -16 12 -42 28 -42 6 0 2 6 -9 14 -10 8
-16 17 -13 21 9 9 79 -79 79 -99 0 -10 4 -15 9 -11 6 3 15 -4 21 -16 8 -15 9
-19 1 -15 -6 4 -11 2 -11 -3 0 -6 6 -11 13 -11 7 0 18 -9 25 -21 8 -12 10 -19
5 -16 -5 3 -15 1 -23 -4 -13 -9 -13 -10 0 -8 32 3 51 -1 45 -11 -4 -6 -9 -9
-13 -6 -4 2 -16 0 -27 -5 -15 -6 -10 -7 17 -5 29 2 38 -1 46 -18 5 -12 19 -43
31 -69 12 -27 16 -45 10 -41 -7 4 -9 3 -5 -4 3 -5 1 -12 -6 -14 -7 -3 -5 -7 6
-11 10 -4 15 -3 11 3 -3 6 0 10 7 10 13 0 47 -61 52 -93 1 -7 7 -22 14 -34 15
-27 15 -33 1 -33 -5 0 -8 4 -4 9 3 5 1 12 -4 15 -5 4 -8 -2 -6 -11 2 -10 4
-22 4 -26 1 -5 5 -6 10 -2 5 3 12 -4 16 -14 8 -25 -4 -89 -18 -98 -5 -3 -7 -1
-3 5 3 6 -1 9 -11 8 -24 -4 -27 -21 -6 -37 16 -13 17 -12 4 4 -16 20 -9 34 7
14 13 -15 5 -60 -9 -51 -5 3 -6 -1 -4 -9 3 -7 -1 -29 -9 -49 -8 -19 -13 -38
-10 -41 3 -3 -4 -8 -15 -12 -12 -3 -21 -11 -21 -16 0 -6 -4 -8 -9 -5 -5 3 -12
-1 -15 -9 -4 -12 -10 -13 -25 -6 -24 13 -38 46 -16 37 8 -3 14 -2 14 2 -1 4 0
9 1 12 7 19 7 39 -1 34 -6 -3 -8 5 -6 18 2 12 2 17 0 10 -3 -7 -10 -9 -16 -5
-7 4 -4 -5 5 -19 10 -15 14 -29 9 -33 -14 -8 -41 5 -41 20 0 7 -7 18 -15 25
-8 7 -13 16 -10 20 3 4 -2 11 -11 14 -9 4 -14 9 -11 13 9 8 38 -17 32 -27 -9
-15 10 -18 23 -4 8 9 9 14 2 14 -6 0 -8 5 -5 10 4 6 3 10 -2 9 -24 -5 -73 15
-73 30 0 9 -9 22 -21 29 -14 9 -18 19 -14 32 4 13 2 20 -6 20 -10 0 -10 3 -1
12 21 21 14 39 -13 35 -13 -1 -28 -7 -32 -12 -4 -4 -2 -5 5 -1 7 4 12 2 12 -6
0 -10 3 -9 10 2 5 8 12 11 16 7 4 -3 1 -14 -6 -23 -12 -13 -11 -17 1 -25 8 -5
10 -9 4 -9 -11 0 -55 49 -55 62 0 4 -6 8 -14 8 -7 0 -16 9 -19 20 -3 11 0 18
7 17 6 -1 11 7 11 18 0 14 -7 20 -27 22 -15 1 -30 -2 -33 -8 -3 -5 0 -6 8 -3
18 6 29 -7 19 -23 -4 -7 -23 3 -50 27 -30 27 -39 41 -30 46 6 4 13 3 15 -3 2
-6 10 -19 19 -29 8 -10 4 2 -8 27 -13 26 -26 45 -30 43 -4 -3 -5 -11 -2 -19 4
-9 -1 -13 -13 -12 -11 0 -20 7 -20 14 0 6 4 10 9 7 4 -3 8 -3 8 -1 0 10 -82
57 -90 52 -6 -3 -10 -2 -10 4 0 6 -6 8 -13 5 -7 -2 -21 3 -32 12 -11 8 -15 13
-9 10 7 -3 29 -8 50 -11 22 -2 33 -2 25 1 -10 5 -11 8 -1 14 7 4 -11 7 -40 5
-59 -3 -83 2 -74 16 3 5 -2 6 -10 3 -9 -3 -16 -1 -16 6 0 6 -4 8 -10 5 -5 -3
-10 1 -10 10 0 9 5 13 10 10 14 -9 50 4 50 17 0 6 -6 6 -15 -2 -8 -7 -21 -10
-29 -7 -7 3 -18 1 -24 -5 -12 -12 -72 7 -72 23 0 5 -7 6 -15 3 -10 -4 -13 -2
-10 8 3 8 -2 21 -12 29 -16 12 -17 12 -6 -1 10 -13 9 -16 -7 -16 -12 0 -17 6
-15 18 2 10 -2 18 -10 18 -9 0 -12 -6 -8 -16 4 -12 2 -15 -8 -12 -8 3 -13 10
-12 16 2 7 -4 9 -14 5 -12 -5 -14 -3 -8 8 7 11 5 11 -10 -1 -14 -11 -17 -11
-11 -1 7 10 3 12 -15 7 -13 -3 -18 -3 -11 0 23 11 12 24 -13 14 -17 -6 -25 -6
-25 1 0 5 -6 9 -12 8 -41 -5 -48 1 -43 34 3 17 2 28 -2 22 -13 -16 -31 -16
-37 1 -3 8 -2 13 2 11 4 -3 16 -1 27 4 16 6 14 8 -12 8 -20 1 -33 -4 -34 -11
0 -10 -2 -10 -6 0 -2 6 -11 12 -19 12 -7 0 -11 -6 -8 -14 3 -8 13 -13 22 -11
9 1 20 -3 24 -9 4 -6 12 -11 18 -11 5 0 9 -4 8 -10 -5 -16 -52 -6 -70 15 -20
24 -30 26 -21 3 5 -13 3 -15 -13 -9 -10 5 -25 9 -31 9 -7 0 -13 4 -13 8 0 4
-8 6 -19 4 -10 -2 -31 3 -45 10 -16 9 -24 10 -20 3 5 -7 2 -8 -6 -3 -8 5 -34
10 -57 11 -64 3 -113 14 -113 24 0 6 8 10 18 10 14 0 15 2 2 10 -10 6 -16 6
-18 0 -2 -6 -9 -7 -14 -4 -6 4 -8 2 -5 -3 4 -6 0 -14 -9 -17 -21 -8 -26 -8
-21 2 3 4 -41 6 -96 5 -101 -1 -102 -1 -79 17 13 11 31 17 40 14 14 -5 15 -4
2 5 -11 7 -22 6 -40 -6 -15 -10 -50 -18 -90 -19 -36 -2 -65 -4 -65 -5 0 -1
-19 -3 -42 -4 -24 -2 -43 1 -43 6 0 5 -11 4 -26 -1 -33 -13 -54 -13 -34 0 10
7 11 10 2 10 -7 0 -15 -7 -18 -15 -4 -8 -10 -15 -16 -15 -5 0 -6 5 -3 10 3 6
2 10 -4 10 -5 0 -8 9 -6 21 4 17 2 19 -10 9 -8 -7 -15 -10 -15 -6 0 4 -11 -1
-25 -10 -13 -8 -29 -13 -34 -10 -5 4 -12 2 -15 -3 -4 -5 5 -8 18 -7 14 2 30
-1 38 -6 10 -8 9 -9 -4 -5 -9 3 -19 3 -22 -1 -9 -8 -51 -15 -96 -16 -19 -1
-38 -5 -42 -11 -4 -6 -13 -2 -22 10 -11 15 -12 23 -3 34 9 12 9 13 0 7 -15 -8
-16 -5 -7 18 6 15 8 15 21 -1 12 -15 11 -13 -1 13 -9 18 -11 36 -6 44 4 7 6
20 2 28 -3 9 -1 13 5 9 7 -4 11 11 11 41 1 26 6 48 11 50 5 2 8 11 5 20 -4 13
-2 13 11 -3 17 -20 17 -20 11 1 -7 21 10 43 36 48 7 1 28 10 46 19 17 10 32
14 32 11 0 -4 8 0 18 8 26 22 181 80 194 72 6 -4 8 -3 5 3 -4 6 5 14 21 17 15
4 35 9 46 13 13 4 17 1 12 -8 -4 -8 -2 -7 6 2 7 9 24 19 37 24 l24 7 -28 -36
c-28 -36 -28 -36 -4 -28 13 5 24 13 24 18 1 5 6 18 12 30 14 24 100 48 107 30
2 -7 9 -4 17 6 13 15 37 17 231 15 119 -1 214 1 211 6 -2 4 3 7 11 7 8 0 17 4
21 9 3 6 -7 6 -27 0 -46 -13 -122 -11 -136 3 -9 9 -15 9 -23 1 -6 -6 -20 -8
-32 -5 -20 6 -19 7 8 13 40 9 214 9 220 -1z m-255 -10 c0 -5 -14 -10 -31 -10
-17 0 -28 4 -24 10 3 6 17 10 31 10 13 0 24 -4 24 -10z m-73 -6 c-3 -3 -12 -4
-19 -1 -8 3 -5 6 6 6 11 1 17 -2 13 -5z m-11065 -90 c-8 -14 -10 -5 -10 36 1
54 1 55 10 18 6 -24 6 -43 0 -54z m13492 -161 c10 -43 28 -131 42 -196 l25
-119 -270 -666 c-400 -988 -574 -1436 -684 -1757 l-62 -180 -2 -1275 -3 -1275
-35 -355 c-47 -479 -98 -1092 -135 -1630 -63 -913 -109 -1325 -162 -1470 -63
-167 -484 -456 -953 -653 -501 -210 -985 -312 -1531 -324 -383 -8 -686 20
-1104 103 -963 191 -2184 642 -3330 1231 -377 194 -832 451 -823 466 3 6 1 7
-5 4 -11 -7 -72 23 -72 36 0 4 -7 7 -15 7 -19 0 -67 49 -59 61 3 5 -2 6 -11 3
-14 -6 -14 -8 2 -21 10 -8 3 -6 -14 3 -35 19 -40 29 -21 40 6 4 8 3 4 -4 -3
-6 -3 -13 2 -15 4 -3 8 38 9 91 1 60 5 98 12 100 7 2 11 34 11 82 0 43 4 80
10 82 9 3 13 141 7 266 -2 44 1 52 16 52 13 0 17 9 17 40 0 22 4 40 9 40 6 0
10 34 10 77 0 47 4 79 12 83 8 5 9 29 4 80 -5 45 -4 75 3 79 5 3 13 39 17 79
7 68 6 74 -13 78 -15 4 -19 14 -19 45 0 26 4 39 13 39 10 0 14 -13 14 -40 0
-68 17 -44 23 33 11 138 1 180 -44 172 -12 -3 -16 1 -12 11 3 9 12 12 25 8 15
-4 18 -3 13 6 -6 9 -3 9 14 1 15 -9 20 -19 17 -36 -3 -14 0 -25 5 -25 5 0 9 7
9 16 0 13 5 12 30 -6 17 -12 27 -26 24 -32 -4 -6 -2 -8 3 -5 12 7 59 -30 56
-44 -2 -4 4 -6 12 -3 8 4 15 1 15 -5 0 -6 4 -11 9 -11 5 0 51 -29 102 -64 953
-649 2813 -1269 4259 -1418 169 -18 893 -17 1100 0 266 23 516 51 755 87 362
55 498 85 705 159 198 71 198 70 -20 41 -64 -8 -97 -9 -102 -2 -25 40 -52 423
-43 632 16 419 65 702 181 1058 68 206 73 217 171 315 99 99 183 149 292 172
63 13 128 9 264 -17 30 -6 29 -4 -18 29 -408 283 -1417 597 -2821 877 -319 64
-669 126 -1104 196 -805 129 -1428 253 -1935 385 -44 12 -150 39 -235 61 -365
95 -1114 324 -1185 362 -11 6 -26 12 -33 13 -8 1 -21 6 -30 10 -9 4 -19 8 -22
8 -47 11 -100 31 -100 38 0 5 -4 7 -8 4 -15 -9 -52 23 -45 40 6 17 27 14 29
-4 1 -7 2 -16 3 -22 0 -5 7 -7 15 -4 9 3 12 12 9 21 -5 12 -3 14 8 8 11 -6 12
-5 2 6 -15 15 -18 86 -4 91 5 2 12 36 16 76 7 68 6 74 -13 78 -15 4 -19 14
-19 45 0 26 4 39 13 39 10 0 14 -13 14 -40 0 -22 4 -40 9 -40 9 0 25 142 24
208 -1 17 3 32 7 32 5 0 9 34 9 77 0 47 4 79 11 83 8 5 14 60 18 155 4 123 3
150 -10 159 -19 15 -21 86 -2 86 10 0 14 -12 14 -40 0 -22 4 -40 8 -40 8 0 36
227 48 390 3 47 9 87 14 90 4 3 11 38 15 78 7 68 6 74 -13 78 -15 4 -19 14
-19 45 0 26 4 39 13 39 10 0 14 -13 14 -40 0 -22 4 -40 9 -40 8 0 15 56 26
211 8 116 18 184 29 191 7 5 11 72 11 203 0 179 1 195 18 195 13 0 17 8 17 38
0 21 5 43 12 50 9 9 9 15 0 24 -9 9 -12 8 -12 -6 0 -10 -4 -14 -12 -10 -7 5
-8 3 -4 -5 10 -15 -25 -11 -36 4 -5 7 -14 6 -28 -2 -28 -18 -32 -16 -13 6 9
11 24 18 34 16 11 -2 19 0 19 5 0 5 -8 9 -17 9 -10 -1 -29 3 -42 7 -19 6 -22
4 -15 -7 6 -10 0 -9 -19 4 -32 21 -37 21 -37 2 0 -8 -5 -15 -10 -15 -6 0 -10
8 -8 17 2 12 -8 19 -37 25 -22 5 -48 7 -58 4 -9 -2 -15 0 -12 4 3 5 -3 8 -12
8 -10 0 -29 2 -43 5 -28 7 -1250 246 -1265 248 -5 1 10 5 35 9 53 9 224 -6
623 -56 1375 -170 2405 -386 3380 -708 348 -115 523 -184 587 -233 156 -117
273 -289 287 -421 l6 -62 -129 -129 c-163 -161 -236 -213 -388 -273 -195 -78
-324 -166 -368 -251 -45 -89 -1 -227 105 -331 105 -103 255 -169 467 -207 63
-11 139 -31 169 -45 117 -53 266 -165 595 -447 264 -226 327 -263 473 -273
312 -23 684 150 1050 488 108 99 347 359 371 403 20 37 22 176 3 255 -39 162
-120 386 -225 615 -25 55 -42 101 -38 103 24 8 1312 -380 1676 -505 87 -30
160 -53 162 -50 2 2 -23 16 -56 32 -33 16 -60 32 -60 37 0 5 70 177 155 382
85 206 217 526 294 713 227 552 420 988 663 1498 150 314 161 335 168 335 4 0
15 -35 24 -77z m-13444 61 c0 -3 -6 -12 -14 -20 -16 -16 -86 -19 -86 -4 0 6
18 10 40 10 22 0 40 5 40 10 0 6 5 10 10 10 6 0 10 -3 10 -6z m4 -66 c-3 -4
-9 -8 -15 -8 -5 0 -9 4 -9 8 0 5 7 9 15 9 8 0 12 -4 9 -9z m111 -41 c198 -37
366 -135 546 -315 77 -78 139 -153 188 -226 170 -256 290 -580 308 -833 l6
-81 -49 -7 c-62 -8 -151 -33 -187 -52 -94 -48 -145 -139 -126 -224 22 -97 165
-315 322 -494 l62 -69 -69 38 c-136 74 -304 219 -395 339 -85 113 -136 269
-112 347 28 94 184 159 385 160 l59 0 -7 70 c-18 194 -96 461 -190 648 -232
461 -654 711 -1073 638 -89 -15 -192 -45 -240 -68 -29 -15 -42 -3 -14 12 12 6
18 16 15 22 -5 7 -2 9 9 5 10 -4 22 1 30 14 8 11 18 19 23 17 5 -1 47 12 94
29 93 34 317 69 330 52 3 -4 41 -14 85 -22z m-482 6 c3 -5 -6 -9 -20 -10 -19
-1 -22 1 -12 8 17 11 26 11 32 2z m4461 -27 c-6 -16 -24 -23 -24 -8 0 10 22
33 27 28 2 -2 1 -11 -3 -20z m-4274 -100 c0 -2 -8 -10 -17 -17 -16 -13 -17
-12 -4 4 13 16 21 21 21 13z m30 -13 c-8 -3 -22 -11 -30 -17 -13 -10 -13 -9
-1 7 7 9 21 17 30 16 13 0 14 -1 1 -6z m-130 -53 c12 -8 11 -10 -7 -10 -13 0
-23 -5 -23 -12 0 -6 -2 -9 -5 -6 -7 6 5 38 14 38 3 0 13 -5 21 -10z m-30 -40
c5 0 10 -4 10 -8 0 -4 -8 -8 -19 -8 -13 0 -18 8 -19 31 0 27 1 28 9 8 4 -13
13 -23 19 -23z m10717 34 c-3 -3 -12 -4 -19 -1 -8 3 -5 6 6 6 11 1 17 -2 13
-5z m-10770 -66 c-3 -7 -5 -2 -5 12 0 14 2 19 5 13 2 -7 2 -19 0 -25z m-19
-23 c-3 -3 -9 2 -12 12 -6 14 -5 15 5 6 7 -7 10 -15 7 -18z m11307 -225 c108
-16 469 -105 570 -140 296 -105 499 -266 600 -475 54 -111 67 -175 66 -321 -1
-242 -90 -516 -223 -685 -15 -21 -29 -49 -30 -63 -1 -14 -5 -26 -8 -26 -3 0
-6 -33 -7 -73 -4 -128 -9 -146 -78 -249 -36 -54 -69 -98 -75 -98 -5 0 -99 34
-210 75 -198 74 -646 226 -768 260 l-64 18 81 24 c285 82 512 307 604 598 151
481 -107 985 -568 1106 -58 15 -111 21 -190 21 -96 1 -137 -5 -219 -29 -12 -3
-16 -1 -12 6 8 13 101 41 171 51 75 11 281 11 360 0z m1030 -32 c5 4 5 1 0 -7
-7 -12 -10 -11 -20 2 -7 9 -16 13 -20 9 -5 -4 -5 -1 0 7 7 12 10 11 20 -2 7
-9 16 -13 20 -9z m495 -466 c0 -21 -28 -45 -45 -38 -16 6 -16 4 -4 -11 8 -10
19 -21 24 -25 6 -5 5 -8 -2 -8 -7 0 -10 -7 -6 -17 4 -11 3 -14 -6 -9 -7 5 -10
14 -7 22 3 8 -1 17 -8 20 -24 9 -25 30 -4 43 16 10 19 10 14 -1 -4 -7 1 -3 10
10 16 22 34 29 34 14z m-1646 -26 c52 -22 81 -70 80 -136 -1 -63 -18 -102 -66
-148 -38 -38 -124 -67 -168 -57 -46 10 -88 51 -101 97 -39 147 121 300 255
244z m-5909 -57 c4 -6 5 -12 2 -15 -7 -7 -37 7 -37 17 0 13 27 11 35 -2z
m-5278 -93 c-3 -8 -2 -17 4 -20 5 -2 4 -3 -3 -2 -7 2 -19 -4 -26 -13 -7 -9 -5
-1 4 17 19 33 30 43 21 18z m5210 -68 c-2 -13 -4 -3 -4 22 0 25 2 35 4 23 2
-13 2 -33 0 -45z m-5180 17 c0 -8 -5 -11 -10 -8 -6 4 -8 0 -4 -10 9 -24 0 -21
-14 4 -8 15 -8 19 0 15 6 -4 11 -2 11 3 0 6 4 11 8 11 5 0 9 -7 9 -15z m-37
-25 c0 -5 -5 -10 -11 -10 -5 0 -7 5 -4 10 3 6 8 10 11 10 2 0 4 -4 4 -10z m84
-81 c-3 -5 -10 -7 -15 -3 -5 3 -7 10 -3 15 3 5 10 7 15 3 5 -3 7 -10 3 -15z
m5268 -49 c-2 -22 -6 -40 -8 -40 -2 0 -4 18 -4 40 0 22 3 40 8 40 4 0 6 -18 4
-40z m-5116 -42 c16 -18 20 -26 10 -18 -17 13 -19 13 -14 0 3 -8 13 -16 24
-16 10 -1 25 -2 33 -3 11 -1 10 -5 -5 -16 -14 -11 -15 -14 -3 -9 10 3 19 2 22
-3 3 -4 -6 -9 -20 -9 -18 -2 -23 2 -19 13 4 9 1 13 -6 10 -7 -2 -12 -9 -11
-14 1 -5 -7 -9 -18 -9 -22 0 -24 7 -7 24 9 9 7 18 -10 41 -11 16 -18 31 -15
35 8 8 6 10 39 -26z m4961 -60 c-2 -13 -4 -5 -4 17 -1 22 1 32 4 23 2 -10 2
-28 0 -40z m149 -98 c-5 -44 -11 -78 -14 -76 -6 7 10 156 17 156 3 0 2 -36 -3
-80z m-5001 48 c5 4 5 1 1 -5 -4 -7 -2 -13 3 -13 15 0 14 -16 -1 -18 -7 0 -23
-4 -35 -7 -24 -8 -32 8 -11 21 7 4 8 3 4 -4 -4 -7 -2 -12 4 -12 6 0 8 10 4 28
-6 23 -5 25 8 15 8 -7 19 -9 23 -5z m75 -524 c0 -342 3 -485 11 -490 15 -9 -9
-24 -41 -24 -18 0 -21 -3 -12 -9 10 -6 7 -10 -12 -13 -15 -3 -23 -1 -19 5 4 6
-4 7 -21 3 -16 -4 -26 -2 -26 5 0 6 -6 9 -12 7 -7 -3 -26 1 -43 9 -21 10 -23
13 -7 9 12 -2 22 0 22 4 0 8 90 7 120 -1 13 -3 16 57 20 489 3 322 2 497 -5
505 -5 6 -2 5 8 -2 16 -12 17 -48 17 -497z m40 476 c0 -14 -28 -1 -34 16 -4
12 -2 12 14 4 11 -6 20 -15 20 -20z m88 -42 c20 -12 39 -26 40 -30 2 -5 8 -6
12 -3 13 8 80 -27 73 -38 -4 -6 -1 -7 6 -3 11 7 91 -19 146 -47 11 -6 27 -11
35 -12 48 -5 89 -28 101 -58 35 -84 185 -251 313 -347 31 -23 56 -45 56 -49 0
-3 -28 -39 -63 -78 -153 -179 -341 -293 -537 -328 -61 -11 -198 -18 -224 -11
l-26 6 0 480 c0 308 -4 481 -10 485 -7 4 -10 -158 -10 -479 0 -336 -3 -486
-11 -486 -5 0 -7 5 -4 10 3 6 0 10 -7 10 -8 0 -9 3 -3 8 6 4 11 12 12 19 2 7
3 221 3 476 1 393 3 464 15 464 8 0 12 -4 9 -9 -3 -4 -1 -8 5 -8 17 0 20 15 5
35 -8 10 -14 13 -14 6 0 -7 -5 -9 -11 -5 -8 4 -7 9 2 14 17 11 44 5 87 -22z
m4439 -100 c-2 -13 -4 -3 -4 22 0 25 2 35 4 23 2 -13 2 -33 0 -45z m170 0 c-2
-13 -4 -3 -4 22 0 25 2 35 4 23 2 -13 2 -33 0 -45z m-5 -138 c-2 -22 -8 -40
-13 -40 -5 0 -9 18 -9 40 0 26 5 40 13 40 9 0 11 -12 9 -40z m125 -222 c-3 -8
-6 -5 -6 6 -1 11 2 17 5 13 3 -3 4 -12 1 -19z m0 -50 c-3 -8 -6 -5 -6 6 -1 11
2 17 5 13 3 -3 4 -12 1 -19z m-100 -75 c-2 -16 -4 -5 -4 22 0 28 2 40 4 28 2
-13 2 -35 0 -50z m80 -155 c-2 -13 -4 -3 -4 22 0 25 2 35 4 23 2 -13 2 -33 0
-45z m-180 0 c-2 -13 -4 -5 -4 17 -1 22 1 32 4 23 2 -10 2 -28 0 -40z m-5142
-10 c5 4 5 1 1 -6 -6 -10 -11 -10 -22 -1 -8 6 -14 14 -14 16 0 3 6 0 13 -6 8
-6 18 -7 22 -3z m90 -38 c8 7 11 1 11 -20 0 -16 -3 -27 -7 -24 -5 2 -5 12 -2
21 4 10 2 14 -4 10 -6 -4 -17 1 -24 11 -11 14 -11 15 1 5 9 -8 18 -9 25 -3z
m65 -70 c6 -11 8 -20 6 -20 -3 0 -10 9 -16 20 -6 11 -8 20 -6 20 3 0 10 -9 16
-20z m4967 -122 c-2 -13 -4 -3 -4 22 0 25 2 35 4 23 2 -13 2 -33 0 -45z m3380
-90 c-40 -47 -137 -190 -137 -201 0 -2 44 7 98 21 78 20 124 25 232 26 159 1
157 2 565 -159 321 -127 730 -258 959 -307 144 -31 331 -31 441 0 104 30 199
81 285 153 l70 59 0 -48 c0 -64 -26 -102 -115 -170 -179 -135 -528 -266 -810
-303 -111 -14 -381 -7 -520 15 -133 21 -255 47 -255 55 0 4 20 12 45 19 57 15
89 45 76 71 -6 10 -8 20 -6 22 2 3 -20 32 -49 67 -104 123 -232 205 -372 238
-92 22 -269 13 -424 -20 -132 -28 -148 -33 -172 -54 -26 -22 -22 -37 19 -77
l37 -36 -60 28 c-154 70 -258 154 -270 219 -20 109 96 251 311 380 50 30 91
54 93 54 2 0 -17 -24 -41 -52z m-3245 -48 c-2 -22 -6 -40 -8 -40 -2 0 -4 18
-4 40 0 22 3 40 8 40 4 0 6 -18 4 -40z m-165 -102 c-2 -13 -4 -3 -4 22 0 25 2
35 4 23 2 -13 2 -33 0 -45z m159 -98 c-5 -44 -11 -78 -14 -76 -6 7 10 156 17
156 3 0 2 -36 -3 -80z m-369 -102 c-3 -8 -6 -5 -6 6 -1 11 2 17 5 13 3 -3 4
-12 1 -19z m180 -40 c-2 -13 -4 -3 -4 22 0 25 2 35 4 23 2 -13 2 -33 0 -45z
m-180 -10 c-3 -8 -6 -5 -6 6 -1 11 2 17 5 13 3 -3 4 -12 1 -19z m175 -128 c-2
-22 -8 -40 -13 -40 -5 0 -9 18 -9 40 0 26 5 40 13 40 9 0 11 -12 9 -40z
m11087 -155 c70 -21 148 -58 239 -113 79 -48 92 -66 151 -214 76 -191 116
-356 146 -603 16 -133 35 -387 30 -393 -5 -5 -1047 347 -1060 358 -7 5 -15 7
-19 3 -4 -4 -4 1 0 11 4 11 9 14 14 7 9 -16 29 30 35 85 5 35 3 44 -10 44 -8
0 -15 5 -15 10 0 6 10 10 23 10 21 0 24 7 35 68 7 42 8 68 2 70 -15 5 -12 22
3 22 8 0 19 11 25 25 15 34 16 33 -10 38 -22 4 -22 5 -2 11 11 4 25 21 31 37
10 26 9 29 -8 29 -10 0 -19 5 -19 11 0 6 10 9 23 7 22 -4 24 1 38 69 12 59 13
73 2 73 -7 0 -13 5 -13 10 0 6 9 10 20 10 14 0 20 9 25 38 3 20 10 52 14 70 8
28 7 32 -10 32 -10 0 -19 5 -19 11 0 7 10 9 24 7 21 -4 24 0 35 51 17 84 17
86 3 83 -8 -1 -11 2 -7 8 3 5 11 10 16 10 6 0 18 7 27 16 13 14 30 16 97 11
44 -3 104 -13 134 -22z m-11122 -107 c-2 -13 -4 -3 -4 22 0 25 2 35 4 23 2
-13 2 -33 0 -45z m160 40 c-3 -8 -6 -5 -6 6 -1 11 2 17 5 13 3 -3 4 -12 1 -19z
m0 -50 c-3 -8 -6 -5 -6 6 -1 11 2 17 5 13 3 -3 4 -12 1 -19z m-80 -93 c22 -17
-1 -29 -27 -15 -11 6 -20 13 -20 16 0 3 5 2 10 -1 6 -4 11 13 12 42 1 46 2 47
5 9 3 -22 12 -45 20 -51z m10673 -195 c0 -5 -4 -10 -10 -10 -5 0 -10 5 -10 10
0 6 5 10 10 10 6 0 10 -4 10 -10z m-13494 -1145 c422 -1276 715 -2035 895
-2320 69 -110 309 -323 644 -574 1053 -789 2419 -1484 3820 -1944 762 -250
1442 -400 2060 -453 238 -20 696 -15 847 10 522 86 1064 287 1578 586 389 226
725 502 805 661 45 88 83 283 109 554 l13 140 8 -88 c13 -149 11 -606 -3 -653
-13 -46 -82 -116 -256 -262 -554 -466 -1313 -896 -1896 -1076 -515 -158 -882
-183 -1528 -106 -1254 152 -2745 708 -4267 1593 -745 433 -1586 1017 -1861
1292 -418 419 -854 1601 -1240 3357 -30 136 -54 253 -53 260 0 7 28 -70 60
-172 33 -102 152 -464 265 -805z m3020 860 c634 -227 1044 -345 1769 -510 750
-171 1598 -334 2160 -415 559 -81 1309 -217 1850 -335 280 -62 294 -67 366
-132 62 -56 82 -103 87 -205 6 -112 -18 -233 -69 -357 -95 -230 -238 -384
-483 -523 -28 -16 -42 -27 -31 -24 11 2 61 14 110 27 122 29 282 85 325 113
131 86 318 391 500 816 35 80 63 146 64 147 1 1 24 -4 51 -11 37 -9 49 -17 47
-29 -11 -66 -239 -590 -311 -717 -123 -215 -201 -279 -438 -354 -266 -83 -573
-117 -1148 -125 l-420 -6 160 -22 c294 -41 407 -48 813 -48 l393 0 20 -65 c37
-120 51 -204 56 -345 9 -240 -19 -343 -119 -442 -73 -72 -185 -133 -336 -183
l-127 -43 -325 6 c-873 17 -1509 96 -2265 282 -771 190 -1621 504 -2210 817
l-131 69 -58 105 c-115 206 -169 358 -169 474 -1 80 19 121 74 156 74 47 157
57 409 50 124 -3 252 -10 285 -15 33 -6 60 -9 62 -8 1 1 -40 19 -90 39 -51 21
-182 74 -292 118 -636 257 -839 316 -891 259 -17 -19 -19 -37 -18 -203 1 -99
9 -261 18 -360 9 -98 16 -180 14 -182 -2 -1 -20 12 -39 29 l-37 32 -102 540
c-56 297 -104 550 -107 563 -4 19 12 12 118 -51 682 -406 1658 -817 2586
-1091 237 -70 700 -189 715 -184 5 2 -62 23 -149 47 -87 24 -275 82 -418 129
-1000 325 -1825 698 -2688 1216 -375 225 -355 206 -436 391 -74 167 -89 285
-51 388 45 120 202 207 435 242 188 27 204 25 471 -70z m13320 -294 c424 -87
851 -367 915 -599 50 -177 126 -797 159 -1287 5 -82 13 -169 16 -192 l6 -43
-83 39 c-105 48 -186 68 -329 81 -193 16 -329 -14 -454 -104 -148 -106 -243
-278 -234 -427 l4 -70 -40 78 c-67 133 -142 313 -180 432 -144 444 -213 1025
-189 1592 5 129 8 262 5 297 -3 57 -6 62 -27 62 -55 0 -180 -23 -325 -59 -175
-44 -175 -43 -20 53 232 144 344 178 555 172 67 -2 165 -13 221 -25z m1884
-811 c150 -41 420 -191 633 -352 111 -83 255 -207 301 -259 37 -40 38 -44 33
-98 -2 -31 -17 -137 -33 -236 -25 -163 -28 -205 -29 -445 0 -146 3 -284 7
-307 l8 -41 -60 39 c-154 103 -332 139 -507 103 -92 -19 -147 -43 -201 -90
-88 -75 -140 -249 -110 -366 8 -31 11 -55 8 -53 -14 9 -30 94 -30 159 0 36
-15 145 -34 243 -133 686 -144 919 -71 1472 9 68 14 129 11 137 -10 26 -189
13 -338 -26 -23 -6 -52 -14 -63 -16 -28 -8 58 51 130 88 140 72 216 83 345 48z
m1785 -793 c106 -35 189 -85 250 -151 54 -58 143 -202 220 -356 74 -147 174
-329 217 -394 39 -59 39 -75 1 -76 -7 0 -37 -11 -67 -24 -68 -30 -147 -102
-171 -156 l-18 -39 -60 42 c-202 141 -365 370 -502 703 -28 67 -36 102 -36
142 1 31 -3 52 -9 52 -6 0 -8 5 -5 10 9 15 -5 51 -17 44 -7 -4 -8 -2 -4 5 4 6
12 9 17 6 5 -4 9 5 9 19 0 19 -5 26 -20 26 -11 0 -20 5 -20 10 0 6 9 10 20 10
19 0 21 6 19 50 -2 29 -8 51 -15 54 -23 9 -226 -57 -397 -129 -16 -7 -18 -4
-13 26 3 19 8 55 11 81 5 38 11 49 28 53 78 18 153 23 307 21 157 -3 183 -5
255 -29z m-228 -59 c-3 -8 -6 -5 -6 6 -1 11 2 17 5 13 3 -3 4 -12 1 -19z m40
-19 c2 -16 -1 -19 -9 -11 -5 5 -7 15 -4 21 10 15 12 14 13 -10z m-17562 -119
c-3 -5 -12 -10 -18 -10 -7 0 -6 4 3 10 19 12 23 12 15 0z m10 -31 c-5 -28 -11
-33 -25 -24 -8 5 -6 13 6 26 22 24 24 24 19 -2z m-38 -91 c-2 -13 -4 -3 -4 22
0 25 2 35 4 23 2 -13 2 -33 0 -45z m206 -43 c16 -14 25 -30 21 -37 -4 -6 -3
-8 4 -4 6 3 13 2 17 -4 3 -5 -1 -10 -10 -10 -9 0 -19 9 -22 19 -4 16 -10 18
-27 11 -19 -7 -22 -5 -21 21 0 35 2 35 38 4z m-226 -117 c-2 -13 -4 -3 -4 22
0 25 2 35 4 23 2 -13 2 -33 0 -45z m170 0 c-2 -13 -4 -3 -4 22 0 25 2 35 4 23
2 -13 2 -33 0 -45z m127 41 c-3 -5 -10 -7 -15 -4 -5 4 -9 1 -9 -6 0 -7 -3 -9
-6 -6 -9 9 16 38 27 31 5 -3 7 -10 3 -15z m14536 1 c207 -22 410 -110 410
-178 0 -11 25 -119 55 -240 30 -121 55 -228 55 -236 0 -12 -7 -15 -22 -12 -22
5 -290 29 -483 44 l-90 7 -45 235 -45 234 -55 -3 c-88 -5 -280 10 -274 21 13
20 127 87 175 103 102 34 175 40 319 25z m-14668 -260 c-2 -22 -8 -40 -13 -40
-5 0 -9 18 -9 40 0 26 5 40 13 40 9 0 11 -12 9 -40z m6823 -583 c87 -307 156
-560 153 -562 -2 -2 -67 -9 -143 -15 -77 -5 -164 -12 -192 -14 -29 -3 -53 -1
-53 3 0 4 19 23 43 42 23 20 56 60 72 90 27 49 30 62 28 139 -3 192 -59 488
-134 714 -27 82 -48 150 -47 151 8 7 104 21 109 16 3 -3 77 -257 164 -564z
m-6698 441 c-3 -8 -6 -5 -6 6 -1 11 2 17 5 13 3 -3 4 -12 1 -19z m16338 -3
c83 -17 213 -79 271 -129 37 -31 42 -41 48 -93 11 -92 53 -289 90 -417 l34
-118 -27 7 c-14 4 -91 22 -171 40 -80 19 -164 40 -188 47 l-44 13 -3 70 c-5
85 -10 132 -20 165 -5 20 -5 22 5 10 10 -13 11 -12 5 5 -4 11 -8 38 -9 60 -1
27 -5 39 -14 37 -8 -1 -11 2 -7 8 3 6 11 7 17 4 7 -5 8 -2 3 5 -4 7 -9 31 -11
55 -2 23 -10 62 -17 86 l-13 45 -174 26 c-195 28 -198 32 -57 69 87 23 188 25
282 5z m-16338 -47 c-3 -8 -6 -5 -6 6 -1 11 2 17 5 13 3 -3 4 -12 1 -19z
m-165 -48 c-2 -22 -6 -40 -8 -40 -2 0 -4 18 -4 40 0 22 3 40 8 40 4 0 6 -18 4
-40z m65 -27 c-2 -16 -4 -5 -4 22 0 28 2 40 4 28 2 -13 2 -35 0 -50z m89 -93
c-5 -44 -11 -78 -14 -76 -6 7 10 156 17 156 3 0 2 -36 -3 -80z m14055 -4 c342
-16 1007 -77 1027 -94 15 -12 14 -13 -8 -8 -58 12 -342 37 -580 51 -347 20
-550 35 -583 41 -17 4 -33 17 -43 37 l-17 31 31 -25 c28 -24 39 -26 173 -33z
m4236 38 c2 -6 -10 -17 -27 -24 l-31 -13 57 -59 c32 -32 61 -58 65 -58 10 0 5
27 -6 37 -4 4 -5 2 0 -6 5 -9 4 -12 -2 -8 -6 4 -8 18 -5 32 4 25 10 21 101
-72 53 -54 131 -127 174 -162 l76 -65 -42 -24 c-74 -44 -208 -103 -218 -97 -5
4 -9 16 -9 29 0 12 -5 27 -11 33 -8 8 -8 17 -1 30 8 15 6 22 -10 32 -11 7 -17
18 -14 27 3 9 1 25 -5 36 -9 16 -8 19 2 12 16 -9 5 5 -115 148 l-88 106 -42
-18 c-54 -24 -106 -34 -106 -22 0 23 104 92 170 113 34 10 83 7 87 -7z
m-18480 -176 c-2 -13 -4 -3 -4 22 0 25 2 35 4 23 2 -13 2 -33 0 -45z m-20
-160 c-2 -13 -4 -3 -4 22 0 25 2 35 4 23 2 -13 2 -33 0 -45z m16193 -70 c10
-6 7 -7 -10 -2 -14 3 -32 11 -40 16 -10 6 -7 7 10 2 14 -3 32 -11 40 -16z
m110 -33 c19 -7 28 -13 20 -13 -8 0 -31 6 -50 13 -19 7 -28 13 -20 13 8 0 31
-6 50 -13z m-16161 -52 c0 -42 -3 -52 -9 -38 -12 28 -12 95 0 95 6 0 10 -25 9
-57z m18 -5 c-2 -13 -4 -3 -4 22 0 25 2 35 4 23 2 -13 2 -33 0 -45z m18703 16
c-96 -45 -101 -43 -15 5 39 22 74 37 79 34 5 -3 -24 -21 -64 -39z m-2475 16
c13 -5 14 -9 5 -9 -8 0 -24 4 -35 9 -13 5 -14 9 -5 9 8 0 24 -4 35 -9z m52
-16 c-3 -3 -12 -4 -19 -1 -8 3 -5 6 6 6 11 1 17 -2 13 -5z m58 -14 c13 -5 14
-9 5 -9 -8 0 -24 4 -35 9 -13 5 -14 9 -5 9 8 0 24 -4 35 -9z m52 -16 c-3 -3
-12 -4 -19 -1 -8 3 -5 6 6 6 11 1 17 -2 13 -5z m40 -10 c-3 -3 -12 -4 -19 -1
-8 3 -5 6 6 6 11 1 17 -2 13 -5z m-16610 -56 c-2 -13 -4 -5 -4 17 -1 22 1 32
4 23 2 -10 2 -28 0 -40z m16650 46 c-3 -3 -12 -4 -19 -1 -8 3 -5 6 6 6 11 1
17 -2 13 -5z m40 -10 c-3 -3 -12 -4 -19 -1 -8 3 -5 6 6 6 11 1 17 -2 13 -5z
m40 -10 c-3 -3 -12 -4 -19 -1 -8 3 -5 6 6 6 11 1 17 -2 13 -5z m46 -11 c-7 -2
-19 -2 -25 0 -7 3 -2 5 12 5 14 0 19 -2 13 -5z m-16616 -25 c-3 -8 -6 -5 -6 6
-1 11 2 17 5 13 3 -3 4 -12 1 -19z m16660 16 c-3 -3 -12 -4 -19 -1 -8 3 -5 6
6 6 11 1 17 -2 13 -5z m40 -10 c-3 -3 -12 -4 -19 -1 -8 3 -5 6 6 6 11 1 17 -2
13 -5z m40 -10 c-3 -3 -12 -4 -19 -1 -8 3 -5 6 6 6 11 1 17 -2 13 -5z m-17090
-66 c-2 -13 -4 -3 -4 22 0 25 2 35 4 23 2 -13 2 -33 0 -45z m17140 56 c-3 -3
-12 -4 -19 -1 -8 3 -5 6 6 6 11 1 17 -2 13 -5z m1580 -30 c-3 -3 -12 -4 -19
-1 -8 3 -5 6 6 6 11 1 17 -2 13 -5z m-18726 -83 c-11 -7 -11 -10 0 -14 9 -3
10 -6 2 -6 -18 -1 -27 20 -12 30 7 4 16 6 18 3 3 -3 -1 -9 -8 -13z m229 -146
c1 -5 -4 -11 -12 -13 -9 -2 -8 0 2 8 12 9 9 10 -15 6 -23 -5 -26 -4 -15 4 13
9 12 11 -5 9 -30 -2 -37 0 -30 10 7 12 74 -10 75 -24z m80 0 c0 -8 -4 -15 -10
-15 -5 0 -10 7 -10 15 0 8 5 15 10 15 6 0 10 -7 10 -15z m18 -42 c-4 -22 -48
-28 -48 -7 0 11 6 15 20 11 11 -3 20 -1 20 4 0 5 3 9 6 9 3 0 4 -7 2 -17z
m-5384 -872 c184 -55 458 -366 611 -696 140 -301 248 -659 289 -957 l5 -37
-87 -50 c-230 -131 -506 -203 -717 -186 -208 17 -430 101 -546 207 -44 40
-109 129 -109 149 0 10 -4 19 -9 19 -5 0 -12 7 -15 16 -5 13 -3 14 7 6 10 -8
13 -6 14 9 1 11 -2 17 -7 14 -5 -3 -12 0 -16 7 -4 7 -4 10 1 6 15 -14 34 42
44 125 17 135 18 177 4 177 -7 0 -13 5 -13 10 0 6 9 10 20 10 17 0 18 5 13 48
-3 28 -1 58 6 70 9 18 8 21 -12 25 l-22 4 22 8 c15 5 24 17 27 39 25 181 36
278 36 312 0 23 5 56 11 74 9 26 9 34 -2 42 -11 7 -11 11 -1 15 6 2 12 19 12
37 0 18 5 48 11 66 9 23 9 34 1 39 -13 8 -5 51 9 51 5 0 9 36 9 80 0 44 4 80
9 80 6 0 9 17 7 38 -2 20 1 42 6 49 5 7 5 14 -2 18 -5 3 -10 13 -10 21 0 8 5
12 10 9 6 -3 10 -2 10 4 0 5 -5 13 -11 16 -12 8 30 33 76 46 51 14 234 2 309
-20z m-414 -301 c0 -5 -7 -10 -15 -10 -8 0 -15 5 -15 10 0 6 7 10 15 10 8 0
15 -4 15 -10z m6383 -216 c45 -26 83 -47 84 -48 5 -4 253 -1049 250 -1053 -4
-4 -197 191 -289 292 l-46 50 -46 387 c-48 401 -49 418 -41 418 3 0 43 -21 88
-46z m-6433 -39 c0 -16 -6 -25 -15 -25 -8 0 -15 5 -15 10 0 6 5 10 10 10 6 0
10 7 10 15 0 8 2 15 5 15 3 0 5 -11 5 -25z m-10 -145 c0 -5 -4 -10 -10 -10 -5
0 -10 5 -10 10 0 6 5 10 10 10 6 0 10 -4 10 -10z m0 -80 c0 -5 -4 -10 -10 -10
-5 0 -10 5 -10 10 0 6 5 10 10 10 6 0 10 -4 10 -10z m4210 -230 c243 -15 484
-37 668 -62 l163 -22 206 -200 c668 -650 1215 -1298 1597 -1895 225 -351 481
-834 619 -1171 63 -151 178 -475 191 -535 l7 -30 -177 3 -177 4 7 -23 c20 -76
25 -69 -50 -70 -121 -2 -117 8 -72 -154 98 -353 244 -944 309 -1250 171 -797
233 -1160 275 -1600 19 -200 25 -742 11 -927 l-9 -108 -91 -81 c-192 -171
-377 -295 -642 -430 -146 -74 -314 -146 -319 -137 -1 2 -24 77 -51 168 -76
260 -216 692 -314 970 -92 261 -231 631 -252 672 -33 65 -168 207 -625 663
-480 479 -621 628 -786 836 -80 101 -198 267 -198 280 0 4 28 45 63 91 428
568 661 1379 617 2149 -66 1164 -604 2241 -1399 2803 l-94 66 179 0 c99 0 253
-5 344 -10z m-575 -69 c83 -53 193 -137 290 -221 618 -538 1032 -1395 1147
-2375 17 -145 17 -598 0 -740 -64 -538 -238 -1029 -507 -1434 -137 -207 -153
-222 -426 -415 -136 -97 -250 -176 -253 -176 -2 0 2 24 10 53 81 306 75 720
-15 1063 -34 129 -87 273 -142 389 l-40 83 21 52 c39 98 108 345 139 495 55
269 65 367 65 640 0 216 -3 267 -23 380 -41 232 -90 343 -205 460 -225 229
-667 378 -1351 454 -99 11 -229 23 -290 27 -60 4 -116 10 -123 14 -9 4 44 58
160 162 530 476 1105 929 1397 1100 70 41 65 41 146 -11z m-3705 -46 c0 -8 -4
-15 -10 -15 -5 0 -10 7 -10 15 0 8 5 15 10 15 6 0 10 -7 10 -15z m8653 -389
c938 -344 1823 -538 2532 -553 257 -6 393 5 604 47 57 12 105 20 106 18 4 -4
143 -972 141 -975 -1 -1 -44 -9 -96 -17 -177 -29 -393 -39 -715 -33 -449 9
-760 36 -1085 93 -142 25 -185 34 -360 75 -224 53 -584 166 -821 259 l-105 41
-55 82 c-121 184 -229 424 -278 622 -23 90 -81 387 -81 412 0 7 21 0 213 -71z
m-1283 -561 c743 -414 1597 -755 2310 -924 491 -116 1164 -201 1593 -201 330
0 753 54 946 121 47 17 93 33 102 35 13 5 33 -25 89 -125 332 -606 595 -1411
695 -2124 l6 -48 -33 5 c-84 15 -466 68 -678 95 -700 90 -1493 154 -2855 231
-198 11 -363 24 -366 28 -4 4 -46 90 -94 192 -161 342 -404 790 -613 1130
-312 507 -653 954 -1176 1540 -67 74 -128 144 -136 155 -14 18 -13 18 20 -2
19 -12 105 -60 190 -108z m5441 -91 c159 -54 1886 -636 2399 -809 250 -84 561
-188 690 -232 l235 -80 3 -74 c2 -41 -2 -119 -8 -174 -53 -465 -249 -1116
-544 -1810 -85 -200 -332 -705 -345 -705 -4 0 -226 54 -492 119 -266 66 -500
122 -520 126 -19 4 -41 10 -47 14 -7 4 -20 86 -32 212 -38 376 -96 731 -166
1014 -167 672 -601 1513 -1178 2285 -100 134 -111 150 -104 150 2 0 51 -16
109 -36z m-10901 -514 c326 -21 676 -61 861 -98 l83 -17 53 -70 c103 -133 168
-301 194 -500 18 -136 6 -392 -25 -535 -98 -461 -319 -675 -807 -784 -195 -43
-933 -140 -2182 -286 -143 -16 -263 -28 -267 -25 -5 3 -12 0 -16 -6 -4 -7 -3
-10 2 -7 5 3 23 -1 39 -8 29 -13 30 -13 5 -14 -14 -1 -46 -4 -72 -6 -31 -3
-48 -1 -48 6 0 6 6 8 13 4 6 -4 9 -4 5 1 -4 4 0 14 10 21 16 12 16 12 -3 11
-19 -2 -20 4 -20 85 0 49 4 88 9 88 4 0 6 18 4 40 -2 22 -1 40 2 40 9 0 30
191 30 263 0 31 4 57 10 57 6 0 10 15 10 34 0 19 -4 38 -10 41 -5 3 -10 24
-10 46 0 29 4 39 16 39 14 0 16 13 14 93 -3 123 -2 147 9 147 6 0 5 -15 -1
-36 -9 -35 -5 -54 9 -40 5 4 7 41 6 82 -2 41 1 74 6 74 9 0 16 66 27 225 3 49
9 92 13 95 4 3 11 56 14 119 4 63 11 117 15 120 11 8 32 180 32 260 0 34 4 61
10 61 6 0 10 15 10 34 0 19 -4 38 -10 41 -5 3 -9 14 -9 23 1 15 2 15 6 0 2
-10 9 -18 14 -18 6 0 8 49 7 123 -3 102 -5 121 -18 119 -8 -2 -11 0 -7 5 5 4
13 8 18 8 5 0 9 5 9 10 0 6 -4 10 -9 10 -5 0 -13 3 -17 7 -3 4 3 6 15 3 11 -2
21 -1 21 3 0 4 14 9 31 10 27 2 30 0 20 -12 -9 -11 -9 -16 1 -22 7 -4 10 -4 6
1 -4 4 -1 14 7 21 10 10 82 16 307 23 359 11 1333 6 1558 -9z m-1995 -20 c-3
-5 -12 -10 -18 -10 -7 0 -6 4 3 10 19 12 23 12 15 0z m-18 -97 c-2 -16 -4 -5
-4 22 0 28 2 40 4 28 2 -13 2 -35 0 -50z m-20 -170 c-2 -16 -4 -5 -4 22 0 28
2 40 4 28 2 -13 2 -35 0 -50z m70 45 c-3 -8 -6 -5 -6 6 -1 11 2 17 5 13 3 -3
4 -12 1 -19z m-90 -210 c-2 -13 -4 -3 -4 22 0 25 2 35 4 23 2 -13 2 -33 0 -45z
m0 -230 c-2 -13 -4 -3 -4 22 0 25 2 35 4 23 2 -13 2 -33 0 -45z m-25 -58 c-2
-22 -8 -40 -13 -40 -5 0 -9 18 -9 40 0 26 5 40 13 40 9 0 11 -12 9 -40z
m16870 -64 c6 4 17 -1 25 -11 7 -11 13 -14 13 -8 0 6 9 9 21 6 11 -3 18 -11
15 -19 -3 -7 -1 -16 5 -19 5 -4 9 -3 8 2 -1 4 -1 11 0 15 1 7 2464 -816 2480
-828 10 -8 -444 -534 -922 -1067 -184 -206 -597 -635 -724 -753 -274 -254
-370 -322 -433 -304 -86 25 -422 340 -521 490 -85 128 -181 333 -181 388 0 12
-4 25 -9 28 -5 3 -9 11 -9 17 0 7 4 6 10 -3 8 -12 10 -9 10 12 0 15 -4 30 -10
33 -5 3 -10 12 -10 18 0 8 4 7 9 -2 12 -18 12 -12 47 267 14 117 23 219 20
227 -3 8 -1 15 4 17 6 2 12 50 15 108 3 58 8 113 11 123 3 10 7 38 9 62 7 103
49 421 57 426 4 3 7 40 6 82 -2 42 0 78 3 80 9 4 72 535 65 553 -3 9 -13 14
-21 10 -18 -7 -31 12 -17 26 6 6 9 16 8 22 -2 6 -1 8 1 3 3 -4 10 -4 15 -1z
m-35 -118 c-2 -13 -4 -3 -4 22 0 25 2 35 4 23 2 -13 2 -33 0 -45z m-16870 -80
c-2 -13 -4 -3 -4 22 0 25 2 35 4 23 2 -13 2 -33 0 -45z m16847 -107 c-3 -45
-9 -80 -11 -77 -3 3 -2 41 2 86 4 45 9 79 12 76 2 -2 1 -41 -3 -85z m-16867
17 c-2 -13 -4 -3 -4 22 0 25 2 35 4 23 2 -13 2 -33 0 -45z m16810 -150 c-2
-13 -4 -3 -4 22 0 25 2 35 4 23 2 -13 2 -33 0 -45z m28 -103 c-4 -42 -10 -74
-12 -71 -3 2 -2 39 2 81 4 42 10 74 12 71 3 -2 2 -39 -2 -81z m-16878 -137
c-2 -13 -4 -3 -4 22 0 25 2 35 4 23 2 -13 2 -33 0 -45z m-22 -182 c-4 -42 -11
-76 -16 -76 -12 0 -11 67 1 75 6 3 10 25 10 47 0 23 3 39 6 35 3 -3 3 -40 -1
-81z m16852 -63 c-3 -10 -5 -4 -5 12 0 17 2 24 5 18 2 -7 2 -21 0 -30z
m-16872 -137 c0 -24 -3 -42 -7 -39 -5 2 -8 -15 -8 -38 0 -23 -3 -40 -6 -36 -8
7 6 157 15 157 3 0 6 -20 6 -44z m16862 -18 c-2 -13 -4 -3 -4 22 0 25 2 35 4
23 2 -13 2 -33 0 -45z m-16860 -160 c-2 -13 -4 -3 -4 22 0 25 2 35 4 23 2 -13
2 -33 0 -45z m16843 22 c0 -22 -4 -40 -10 -40 -11 0 -14 63 -3 73 11 12 13 8
13 -33z m-16868 -80 c-2 -22 -8 -40 -13 -40 -5 0 -9 18 -9 40 0 26 5 40 13 40
9 0 11 -12 9 -40z m16835 -182 c-2 -13 -4 -3 -4 22 0 25 2 35 4 23 2 -13 2
-33 0 -45z m-16779 -31 c13 -9 7 -27 -8 -27 -5 0 -14 9 -20 19 -10 20 2 24 28
8z m3105 -114 c101 -52 217 -140 260 -196 77 -102 100 -207 100 -457 -1 -432
-124 -865 -310 -1095 -55 -68 -146 -133 -229 -164 -191 -72 -1058 -273 -2009
-467 -267 -54 -285 -59 -385 -109 -58 -29 -125 -56 -150 -60 l-45 -8 50 -13
c60 -16 222 -17 630 -4 673 22 1041 49 1601 120 221 27 234 28 304 14 182 -38
242 -78 306 -206 79 -157 164 -453 164 -569 0 -40 -5 -47 -84 -124 -185 -181
-393 -284 -816 -404 -373 -107 -940 -219 -1365 -270 -568 -68 -895 -50 -996
56 -105 109 -151 251 -234 713 -78 438 -106 553 -174 709 -21 48 -36 92 -33
99 2 6 -1 12 -7 12 -6 0 -15 9 -21 20 -8 16 -8 20 4 20 9 0 14 -6 12 -12 -1
-7 -1 -10 1 -5 3 4 8 5 13 2 4 -3 6 4 3 15 -3 11 -10 17 -16 13 -6 -3 -7 -1
-3 6 6 9 11 9 22 0 12 -9 13 3 9 80 -3 50 -2 91 3 91 10 0 32 181 32 263 0 35
4 57 11 57 7 0 10 27 8 84 -3 48 0 82 5 79 5 -4 6 12 2 35 -6 39 6 60 17 30 2
-7 2 11 -1 40 -3 31 -1 52 5 52 11 0 18 60 29 225 3 49 9 92 13 95 11 8 60
426 67 580 4 74 10 137 14 140 5 3 10 58 11 122 2 65 7 118 12 118 4 0 7 18 7
40 0 22 4 40 8 40 13 0 30 171 20 199 -7 18 -5 22 6 18 10 -4 13 -1 9 9 -3 9
2 14 17 14 11 0 19 -4 16 -9 -4 -5 2 -7 11 -5 10 3 58 -4 106 -15 103 -25 216
-26 747 -11 756 22 1123 38 1655 74 l320 22 79 -28 c43 -16 120 -50 169 -75z
m-3200 67 c-7 -27 -13 -25 -11 4 1 14 5 23 9 20 4 -2 5 -13 2 -24z m62 21 c3
-5 2 -12 -3 -15 -5 -3 -9 1 -9 9 0 17 3 19 12 6z m-78 -113 c-2 -13 -4 -3 -4
22 0 25 2 35 4 23 2 -13 2 -33 0 -45z m16810 -150 c-2 -13 -4 -3 -4 22 0 25 2
35 4 23 2 -13 2 -33 0 -45z m51 -66 c6 -24 6 -39 1 -36 -5 3 -9 16 -9 30 0 14
-4 22 -10 19 -12 -7 -12 -3 -4 20 8 21 11 17 22 -33z m12 -112 c0 -5 -7 -7
-15 -4 -10 4 -15 0 -15 -12 0 -9 -3 -15 -6 -11 -11 10 4 37 21 37 8 0 15 -4
15 -10z m-16898 -40 c-2 -22 -8 -40 -13 -40 -5 0 -9 18 -9 40 0 26 5 40 13 40
9 0 11 -12 9 -40z m8990 -59 c-48 -97 -62 -201 -37 -267 21 -56 82 -120 156
-164 l54 -32 -40 7 c-63 11 -144 55 -186 104 -104 117 -89 317 29 392 25 16
49 29 52 29 4 0 -9 -31 -28 -69z m-9025 -123 c-2 -13 -4 -3 -4 22 0 25 2 35 4
23 2 -13 2 -33 0 -45z m-20 -80 c-2 -13 -4 -5 -4 17 -1 22 1 32 4 23 2 -10 2
-28 0 -40z m-2 -142 c0 -24 -3 -42 -7 -39 -5 2 -8 -15 -8 -38 0 -23 -3 -40 -6
-36 -8 7 6 157 15 157 3 0 6 -20 6 -44z m13931 -8 c-17 -35 -21 -61 -21 -138
0 -88 3 -101 33 -162 32 -65 63 -97 122 -125 23 -11 22 -12 -15 -6 -165 24
-243 170 -190 351 13 43 69 122 87 122 3 0 -4 -19 -16 -42z m-15185 -169 c48
-211 81 -335 165 -629 59 -205 255 -855 289 -958 l14 -42 -76 -103 c-334 -451
-691 -717 -963 -717 l-53 0 8 93 c4 50 9 109 10 129 2 20 5 41 9 46 3 5 8 58
11 118 4 60 13 137 22 172 8 35 13 74 10 88 -2 13 -1 24 3 24 4 0 10 48 14
108 9 137 12 175 16 185 7 18 12 74 13 150 1 51 7 85 14 90 7 4 10 20 8 36 -2
16 0 45 5 65 5 24 4 37 -4 40 -7 3 -5 8 5 15 15 9 30 110 34 216 0 11 4 34 8
50 4 17 9 62 12 100 13 192 18 244 25 240 3 -2 7 2 7 10 0 30 -24 14 -35 -22
l-11 -38 6 35 c7 44 28 77 37 58 3 -7 4 -1 2 15 -2 15 0 27 4 27 4 0 11 11 14
25 4 14 10 24 15 21 4 -3 8 1 8 8 0 14 306 526 311 521 2 -2 21 -81 43 -176z
m1256 -1 c-2 -13 -4 -3 -4 22 0 25 2 35 4 23 2 -13 2 -33 0 -45z m-40 -80 c-2
-13 -4 -3 -4 22 0 25 2 35 4 23 2 -13 2 -33 0 -45z m-40 -330 c-2 -13 -4 -3
-4 22 0 25 2 35 4 23 2 -13 2 -33 0 -45z m-1627 -288 c0 -5 -4 -10 -10 -10 -5
0 -10 5 -10 10 0 6 5 10 10 10 6 0 10 -4 10 -10z m14183 -56 c114 -10 207 -20
207 -23 0 -3 -54 -181 -119 -396 -66 -214 -119 -391 -118 -392 1 -1 106 -7
232 -13 127 -7 242 -15 256 -19 l26 -6 -146 -355 -147 -355 163 -3 c90 -1 163
-5 163 -9 0 -7 -684 -1112 -687 -1109 -1 1 56 206 126 456 107 381 126 455
112 458 -9 1 -87 -1 -174 -5 -86 -5 -157 -6 -157 -4 0 2 45 150 100 329 55
179 98 327 96 329 -3 3 -121 7 -264 10 l-259 6 139 551 c76 303 141 557 144
565 3 10 16 12 52 8 26 -4 140 -14 255 -23z m-12581 -24 c-2 -22 -8 -40 -13
-40 -5 0 -9 18 -9 40 0 26 5 40 13 40 9 0 11 -12 9 -40z m-35 -182 c-2 -13 -4
-3 -4 22 0 25 2 35 4 23 2 -13 2 -33 0 -45z m-1630 -40 c-3 -8 -6 -5 -6 6 -1
11 2 17 5 13 3 -3 4 -12 1 -19z m1610 -40 c-2 -13 -4 -5 -4 17 -1 22 1 32 4
23 2 -10 2 -28 0 -40z m-1610 -10 c-3 -8 -6 -5 -6 6 -1 11 2 17 5 13 3 -3 4
-12 1 -19z m-10 -80 c-3 -7 -5 -2 -5 12 0 14 2 19 5 13 2 -7 2 -19 0 -25z
m1530 -22 c-5 -15 -24 -18 -24 -3 0 8 6 14 14 14 7 0 12 -5 10 -11z m85 -23
c-6 -65 -10 -70 -11 -15 0 28 3 52 7 52 4 0 6 -17 4 -37z m-11 -141 c-6 -2 -9
-8 -5 -13 3 -5 0 -9 -5 -9 -14 0 -14 6 1 30 8 13 14 16 17 8 2 -7 -1 -14 -8
-16z m-1611 -22 c0 -5 -7 -10 -16 -10 -8 0 -12 5 -9 10 3 6 10 10 16 10 5 0 9
-4 9 -10z m0 -80 c0 -5 -4 -10 -10 -10 -5 0 -10 5 -10 10 0 6 5 10 10 10 6 0
10 -4 10 -10z m-30 -160 c0 -5 -5 -10 -11 -10 -5 0 -7 5 -4 10 3 6 8 10 11 10
2 0 4 -4 4 -10z m10 -160 c0 -5 -9 -10 -20 -10 -11 0 -20 5 -20 10 0 6 9 10
20 10 11 0 20 -4 20 -10z m-99 -630 c10 0 19 -4 19 -10 0 -5 -9 -10 -19 -10
-11 0 -21 -8 -23 -17 -3 -10 -4 2 -4 27 0 25 1 37 4 28 2 -10 12 -18 23 -18z
m19 -65 c0 -8 -7 -15 -15 -15 -13 0 -14 3 -3 15 16 18 18 18 18 0z m11404
-493 c3 -5 0 -26 -6 -48 -8 -28 -7 -134 1 -384 6 -190 14 -364 17 -387 5 -42
4 -43 -23 -43 -58 0 -56 -19 -44 424 6 243 15 415 21 426 11 21 25 26 34 12z
m256 -122 c-7 -23 -5 -161 7 -427 9 -217 13 -396 10 -399 -3 -4 -18 -4 -32 0
l-25 6 0 401 c0 335 2 406 15 436 20 47 39 33 25 -17z m2938 -1550 c3 -16 -91
-28 -908 -111 -101 -11 -191 -21 -200 -23 -8 -2 -28 -7 -44 -11 -23 -5 -27
-10 -23 -30 2 -14 1 -25 -2 -25 -3 0 -7 -192 -9 -427 -2 -400 -4 -429 -21
-448 -49 -54 -56 -126 -16 -173 24 -29 24 -29 26 -270 0 -132 -2 -245 -5 -250
-3 -5 -6 -103 -6 -219 l-1 -209 -113 -28 c-113 -28 -163 -29 -184 -3 -10 12 0
971 16 1682 8 321 9 342 30 382 15 29 30 43 49 47 45 9 285 34 638 66 182 17
398 37 480 45 273 27 288 27 293 5z m-4848 -85 c465 -19 862 -35 883 -35 l37
0 0 -510 0 -511 -97 6 c-54 4 -480 26 -946 50 -466 23 -851 46 -854 49 -4 4
-9 229 -11 500 l-5 493 74 -4 c41 -2 454 -19 919 -38z m3739 -1038 c-46 -31
-46 -63 1 -89 l35 -20 -44 5 c-48 6 -61 18 -61 59 0 32 41 68 78 68 24 0 24
-1 -9 -23z m-3826 -836 l117 -150 0 -579 0 -580 -44 -11 c-25 -6 -50 -11 -55
-11 -8 0 -11 181 -11 586 l0 585 -106 155 -105 154 44 0 43 0 117 -149z
m-2461 -2170 c31 -1 63 -4 72 -7 14 -6 16 -131 16 -1319 0 -1180 -2 -1314 -16
-1319 -32 -12 -164 -6 -204 10 l-41 16 6 847 c3 465 8 1058 11 1317 l6 470 47
-7 c25 -4 72 -8 103 -8z m922 -494 l136 -2 0 -1030 0 -1031 71 -199 c60 -170
69 -206 64 -242 l-6 -43 -278 0 -279 0 -6 23 c-13 49 -3 92 59 272 l65 187 0
1040 c0 1008 1 1039 19 1033 10 -3 80 -6 155 -8z"/>
<path d="M32246 41381 c-3 -5 1 -11 9 -14 9 -4 12 -1 8 9 -6 16 -10 17 -17 5z"/>
<path d="M32276 41378 c3 -5 10 -6 15 -3 13 9 11 12 -6 12 -8 0 -12 -4 -9 -9z"/>
<path d="M32287 41273 c-4 -3 -7 -13 -7 -22 1 -13 3 -13 11 2 11 19 8 33 -4
20z"/>
<path d="M32289 41200 c-14 -14 -14 -18 0 -30 13 -12 14 -12 9 2 -4 8 -1 21 5
27 6 6 9 12 6 14 -2 2 -11 -4 -20 -13z"/>
<path d="M32493 40975 c0 -8 4 -12 9 -9 5 3 6 10 3 15 -9 13 -12 11 -12 -6z"/>
<path d="M32513 40865 c0 -8 4 -12 9 -9 5 3 6 10 3 15 -9 13 -12 11 -12 -6z"/>
<path d="M32500 40813 c0 -15 -2 -16 -10 -3 -8 12 -10 11 -7 -5 1 -11 8 -29
14 -40 10 -17 12 -14 11 23 0 40 -8 62 -8 25z"/>
<path d="M32311 40784 c0 -11 3 -14 6 -6 3 7 2 16 -1 19 -3 4 -6 -2 -5 -13z"/>
<path d="M32520 40781 c0 -25 6 -27 13 -6 4 8 2 17 -3 20 -6 4 -10 -3 -10 -14z"/>
<path d="M32569 40488 c-5 -18 -6 -38 -1 -34 7 8 12 36 6 36 -2 0 -4 -1 -5 -2z"/>
<path d="M32330 40394 c0 -6 8 -18 17 -25 10 -8 14 -9 10 -2 -4 7 0 16 10 22
17 10 17 10 1 11 -10 0 -18 -6 -18 -12 0 -9 -4 -8 -10 2 -5 8 -10 10 -10 4z"/>
<path d="M32382 40370 c-7 -11 -8 -20 -3 -20 9 0 24 30 18 36 -1 2 -8 -6 -15
-16z"/>
<path d="M32573 40322 c10 -10 14 -23 10 -27 -5 -5 1 -3 11 5 17 13 17 15 3
18 -10 2 -17 8 -17 13 0 5 -5 9 -12 9 -6 0 -4 -7 5 -18z"/>
<path d="M32440 40260 c0 -4 7 -7 15 -6 23 3 26 12 5 13 -11 1 -20 -2 -20 -7z"/>
<path d="M32580 40246 c0 -31 6 -34 13 -6 3 11 1 23 -4 26 -5 3 -9 -6 -9 -20z"/>
<path d="M32593 40187 c2 -20 19 -25 26 -6 2 6 -1 9 -7 5 -6 -3 -13 0 -16 6
-3 7 -5 5 -3 -5z"/>
<path d="M32615 40099 c-4 -6 -5 -12 -2 -15 2 -3 7 2 10 11 7 17 1 20 -8 4z"/>
<path d="M32590 40070 c0 -5 5 -10 11 -10 5 0 7 5 4 10 -3 6 -8 10 -11 10 -2
0 -4 -4 -4 -10z"/>
<path d="M23920 39880 c0 -5 5 -10 10 -10 6 0 10 5 10 10 0 6 -4 10 -10 10 -5
0 -10 -4 -10 -10z"/>
<path d="M23875 39860 c-3 -5 1 -10 9 -10 8 0 18 5 21 10 3 6 -1 10 -9 10 -8
0 -18 -4 -21 -10z"/>
<path d="M23978 39863 c7 -3 16 -2 19 1 4 3 -2 6 -13 5 -11 0 -14 -3 -6 -6z"/>
<path d="M24780 39864 c0 -1 8 -8 17 -15 9 -8 14 -9 10 -2 -4 6 -1 13 5 16 7
3 3 4 -9 4 -13 -1 -23 -2 -23 -3z"/>
<path d="M24830 39850 c0 -5 7 -10 16 -10 8 0 12 5 9 10 -3 6 -10 10 -16 10
-5 0 -9 -4 -9 -10z"/>
<path d="M24870 39856 c0 -2 7 -6 15 -10 8 -3 15 -1 15 4 0 6 -7 10 -15 10 -8
0 -15 -2 -15 -4z"/>
<path d="M23600 39790 c0 -14 5 -18 16 -13 12 4 13 8 3 13 -8 6 -6 9 7 13 16
4 16 5 -3 6 -17 1 -23 -5 -23 -19z"/>
<path d="M23568 39763 c7 -3 16 -2 19 1 4 3 -2 6 -13 5 -11 0 -14 -3 -6 -6z"/>
<path d="M25048 39763 c7 -3 16 -2 19 1 4 3 -2 6 -13 5 -11 0 -14 -3 -6 -6z"/>
<path d="M23401 39730 c-13 -11 -18 -20 -12 -20 6 0 20 9 31 20 26 26 12 25
-19 0z"/>
<path d="M25257 39704 c-8 -8 1 -24 12 -24 4 0 8 7 8 15 0 16 -9 20 -20 9z"/>
<path d="M23267 39635 c-4 -8 -3 -16 1 -19 4 -3 9 4 9 15 2 23 -3 25 -10 4z"/>
<path d="M23179 39613 c-13 -16 -12 -17 4 -4 16 13 21 21 13 21 -2 0 -10 -8
-17 -17z"/>
<path d="M25470 39610 c-9 -6 -10 -10 -3 -10 6 0 15 5 18 10 8 12 4 12 -15 0z"/>
<path d="M25378 39603 c6 -2 18 -2 25 0 6 3 1 5 -13 5 -14 0 -19 -2 -12 -5z"/>
<path d="M25690 39471 c0 -6 4 -13 10 -16 6 -3 7 1 4 9 -7 18 -14 21 -14 7z"/>
<path d="M23006 39453 c-6 -14 -5 -15 5 -6 7 7 10 15 7 18 -3 3 -9 -2 -12 -12z"/>
<path d="M23760 39436 c0 -2 7 -7 16 -10 8 -3 12 -2 9 4 -6 10 -25 14 -25 6z"/>
<path d="M23820 39432 c0 -12 42 -34 49 -25 6 8 24 14 53 16 9 1 15 4 12 8 -7
12 -48 7 -66 -9 -10 -8 -18 -10 -18 -5 0 6 -7 13 -15 17 -8 3 -15 2 -15 -2z"/>
<path d="M23960 39436 c0 -3 9 -10 20 -16 11 -6 20 -8 20 -6 0 3 -9 10 -20 16
-11 6 -20 8 -20 6z"/>
<path d="M24855 39430 c-4 -6 -3 -10 2 -9 4 1 10 0 13 -1 16 -6 41 -7 35 -2
-4 4 -10 7 -13 7 -4 0 -12 4 -19 8 -6 4 -15 3 -18 -3z"/>
<path d="M24810 39420 c-9 -6 -10 -10 -3 -10 6 0 15 5 18 10 8 12 4 12 -15 0z"/>
<path d="M23760 39416 c0 -2 11 -11 25 -20 14 -9 25 -13 25 -8 0 5 -11 14 -25
20 -14 6 -25 10 -25 8z"/>
<path d="M25766 39368 c3 -4 9 -8 15 -8 5 0 9 4 9 8 0 5 -7 9 -15 9 -8 0 -12
-4 -9 -9z"/>
<path d="M23445 39350 c-4 -6 -1 -17 5 -25 10 -11 10 -15 1 -15 -7 0 -9 -4 -6
-10 3 -5 11 -10 17 -10 6 0 8 3 5 7 -4 3 1 12 11 20 9 8 11 12 5 8 -7 -3 -13
-1 -13 4 0 6 8 11 18 12 11 0 12 2 4 6 -7 3 -20 -1 -29 -9 -15 -11 -16 -11
-10 5 7 19 2 23 -8 7z"/>
<path d="M25150 39349 c0 -5 5 -7 10 -4 6 3 10 8 10 11 0 2 -4 4 -10 4 -5 0
-10 -5 -10 -11z"/>
<path d="M25338 39353 c6 -2 12 -9 12 -14 0 -6 -6 -7 -12 -3 -10 5 -10 4 -1
-6 7 -8 16 -11 19 -7 10 10 -4 37 -18 36 -10 0 -10 -2 0 -6z"/>
<path d="M25257 39329 c14 -14 75 -20 67 -7 -3 5 -11 7 -17 5 -7 -2 -23 0 -37
5 -20 7 -22 7 -13 -3z"/>
<path d="M25841 39294 c0 -11 3 -14 6 -6 3 7 2 16 -1 19 -3 4 -6 -2 -5 -13z"/>
<path d="M25870 39300 c-9 -6 -10 -10 -3 -10 6 0 15 5 18 10 8 12 4 12 -15 0z"/>
<path d="M23273 39265 c-11 -12 -6 -13 27 -11 43 3 58 11 45 24 -4 4 -10 1
-12 -6 -4 -10 -8 -10 -21 0 -12 10 -14 10 -8 1 4 -7 3 -13 -3 -13 -5 0 -11 4
-13 9 -1 5 -9 3 -15 -4z"/>
<path d="M25569 39263 c-8 -10 -9 -14 -2 -10 7 4 16 0 21 -9 8 -14 10 -12 10
9 0 31 -10 34 -29 10z"/>
<path d="M22682 39263 c-7 -2 -17 -14 -23 -26 -9 -19 -8 -20 3 -7 8 8 20 21
28 28 15 13 13 14 -8 5z"/>
<path d="M25923 39249 c-1 -10 4 -18 10 -16 7 1 11 -7 10 -18 -1 -11 0 -14 3
-8 4 10 11 10 27 2 22 -10 22 -10 2 6 -11 9 -20 23 -20 32 0 23 -31 25 -32 2z"/>
<path d="M23041 39178 c1 -18 2 -19 6 -5 2 9 9 15 14 12 5 -4 9 -1 9 4 0 6 -7
11 -15 11 -9 0 -15 -9 -14 -22z"/>
<path d="M23146 39185 c4 -8 10 -12 15 -9 11 6 2 24 -11 24 -5 0 -7 -7 -4 -15z"/>
<path d="M26015 39150 c-3 -5 -1 -10 4 -10 6 0 11 5 11 10 0 6 -2 10 -4 10 -3
0 -8 -4 -11 -10z"/>
<path d="M22889 39103 c-12 -14 -12 -16 0 -8 11 6 13 3 9 -13 -7 -25 17 -19
32 8 8 15 6 17 -12 12 -14 -3 -19 -1 -14 6 11 18 0 14 -15 -5z"/>
<path d="M22527 39085 c3 -8 9 -12 14 -9 12 7 11 11 -5 17 -10 4 -13 1 -9 -8z"/>
<path d="M26085 39069 c-4 -6 -5 -12 -2 -15 2 -3 7 2 10 11 7 17 1 20 -8 4z"/>
<path d="M22510 39050 c-9 -6 -10 -10 -3 -10 6 0 15 5 18 10 8 12 4 12 -15 0z"/>
<path d="M26034 39032 c4 -3 14 -7 22 -8 9 -1 13 0 10 4 -4 3 -14 7 -22 8 -9
1 -13 0 -10 -4z"/>
<path d="M22801 39004 c0 -11 3 -14 6 -6 3 7 2 16 -1 19 -3 4 -6 -2 -5 -13z"/>
<path d="M26120 38952 c0 -15 11 -21 27 -15 12 5 12 7 1 14 -17 11 -28 11 -28
1z"/>
<path d="M22416 38935 c-3 -8 -1 -15 4 -15 6 0 10 7 10 15 0 8 -2 15 -4 15 -2
0 -6 -7 -10 -15z"/>
<path d="M22467 38901 c-4 -17 -3 -21 5 -13 5 5 8 16 6 23 -3 8 -7 3 -11 -10z"/>
<path d="M26227 38913 c-4 -3 -7 -11 -7 -17 0 -6 5 -5 12 2 6 6 9 14 7 17 -3
3 -9 2 -12 -2z"/>
<path d="M22430 38890 c0 -5 5 -10 10 -10 6 0 10 5 10 10 0 6 -4 10 -10 10 -5
0 -10 -4 -10 -10z"/>
<path d="M22585 38787 c-31 -19 -30 -42 3 -44 15 0 19 1 10 4 -19 5 -25 33 -7
33 5 0 7 -4 4 -10 -3 -5 1 -10 9 -10 8 0 18 5 21 10 4 6 1 9 -7 8 -7 -2 -12 3
-10 10 3 15 2 14 -23 -1z"/>
<path d="M22390 38749 c0 -5 -4 -7 -10 -4 -6 3 -7 -1 -4 -9 9 -23 24 -20 24 4
0 11 -2 20 -5 20 -3 0 -5 -5 -5 -11z"/>
<path d="M22573 38706 c0 -18 3 -24 9 -18 7 7 7 16 0 28 -8 14 -9 13 -9 -10z"/>
<path d="M22420 38300 c9 -17 30 -20 30 -4 0 3 -4 2 -10 -1 -5 -3 -10 1 -10 9
0 9 -5 16 -10 16 -7 0 -7 -7 0 -20z"/>
<path d="M22433 38268 c-16 -8 -23 -23 -28 -60 -8 -56 -2 -70 15 -38 8 15 8
20 1 16 -6 -4 -11 -1 -11 7 0 10 7 14 23 10 16 -3 18 -2 8 5 -11 8 -11 10 0
15 10 4 9 6 -3 6 -10 1 -18 5 -18 11 0 5 7 6 17 3 10 -4 14 -2 10 4 -4 6 -1
13 5 16 7 2 11 7 8 9 -3 3 -15 1 -27 -4z"/>
<path d="M29735 38350 c-3 -5 1 -10 9 -10 9 0 16 5 16 10 0 6 -4 10 -9 10 -6
0 -13 -4 -16 -10z"/>
<path d="M28946 38261 c-4 -5 3 -7 14 -4 23 6 26 13 6 13 -8 0 -17 -4 -20 -9z"/>
<path d="M30005 38250 c-3 -5 -1 -10 4 -10 6 0 11 5 11 10 0 6 -2 10 -4 10 -3
0 -8 -4 -11 -10z"/>
<path d="M30097 38249 c7 -7 15 -10 18 -7 3 3 -2 9 -12 12 -14 6 -15 5 -6 -5z"/>
<path d="M28828 38211 c10 -6 10 -10 -2 -20 -10 -8 -16 -9 -21 -1 -3 5 -11 10
-18 10 -6 0 -1 -7 11 -16 22 -15 24 -15 37 2 14 20 11 34 -8 34 -8 0 -8 -3 1
-9z"/>
<path d="M28757 38183 c-10 -9 -9 -23 1 -23 5 0 9 7 9 15 0 17 -1 18 -10 8z"/>
<path d="M30166 38173 c-6 -14 -5 -15 5 -6 7 7 10 15 7 18 -3 3 -9 -2 -12 -12z"/>
<path d="M30258 38128 c14 -18 47 -13 35 5 -5 8 -8 7 -11 -1 -3 -10 -7 -10
-20 0 -15 12 -15 11 -4 -4z"/>
<path d="M28605 38121 c-3 -5 -2 -12 3 -15 5 -3 9 1 9 9 0 17 -3 19 -12 6z"/>
<path d="M28676 37908 c3 -4 9 -8 15 -8 5 0 9 4 9 8 0 5 -7 9 -15 9 -8 0 -12
-4 -9 -9z"/>
<path d="M29345 37911 c-3 -5 -2 -12 3 -15 5 -3 9 1 9 9 0 17 -3 19 -12 6z"/>
<path d="M28787 37899 c7 -7 15 -10 18 -7 3 3 -2 9 -12 12 -14 6 -15 5 -6 -5z"/>
<path d="M28860 37900 c0 -5 5 -10 11 -10 5 0 7 5 4 10 -3 6 -8 10 -11 10 -2
0 -4 -4 -4 -10z"/>
<path d="M28930 37900 c0 -5 -7 -7 -15 -4 -8 4 -15 2 -15 -4 0 -5 9 -12 20
-15 11 -3 18 -1 14 4 -3 5 2 9 10 9 9 0 16 5 16 10 0 6 -7 10 -15 10 -8 0 -15
-4 -15 -10z"/>
<path d="M29262 37898 c6 -18 25 -21 25 -3 0 8 -7 15 -14 15 -8 0 -13 -5 -11
-12z"/>
<path d="M28640 37890 c0 -5 5 -10 10 -10 6 0 10 5 10 10 0 6 -4 10 -10 10 -5
0 -10 -4 -10 -10z"/>
<path d="M29602 37831 c2 -7 7 -12 11 -12 12 1 9 15 -3 20 -7 2 -11 -2 -8 -8z"/>
<path d="M30578 37813 c-7 -14 -3 -33 6 -33 12 -1 17 28 6 35 -5 3 -10 2 -12
-2z"/>
<path d="M29916 37748 c3 -4 11 -5 19 -1 21 7 19 12 -4 10 -11 0 -18 -5 -15
-9z"/>
<path d="M29987 37745 c-4 -8 -3 -16 1 -19 4 -3 9 4 9 15 2 23 -3 25 -10 4z"/>
<path d="M30060 37669 c0 -15 18 -19 23 -6 3 8 -1 14 -9 14 -8 0 -14 -4 -14
-8z"/>
<path d="M30290 37575 c-11 -13 -10 -14 4 -9 9 3 16 10 16 15 0 13 -6 11 -20
-6z"/>
<path d="M30610 37276 c0 -2 7 -6 15 -10 8 -3 15 -1 15 4 0 6 -7 10 -15 10 -8
0 -15 -2 -15 -4z"/>
<path d="M30600 37250 c0 -5 5 -10 11 -10 5 0 7 5 4 10 -3 6 -8 10 -11 10 -2
0 -4 -4 -4 -10z"/>
<path d="M30626 37235 c-3 -8 -1 -15 4 -15 6 0 10 7 10 15 0 8 -2 15 -4 15 -2
0 -6 -7 -10 -15z"/>
<path d="M23035 34461 c-3 -5 -2 -12 3 -15 5 -3 9 1 9 9 0 17 -3 19 -12 6z"/>
<path d="M22734 31540 c0 -13 4 -16 10 -10 7 7 7 13 0 20 -6 6 -10 3 -10 -10z"/>
<path d="M25161 30096 c9 -10 465 -183 674 -256 507 -179 937 -297 1310 -362
112 -19 165 -22 390 -22 354 0 575 32 855 124 112 36 284 109 277 117 -2 2
-31 -3 -63 -12 -184 -48 -460 -69 -924 -70 -311 0 -413 3 -530 18 -317 39
-644 103 -1083 213 -234 59 -727 199 -836 238 -41 15 -80 21 -70 12z"/>
<path d="M18150 36656 c0 -2 8 -10 18 -17 15 -13 16 -12 3 4 -13 16 -21 21
-21 13z"/>
<path d="M18220 35499 c0 -5 5 -7 10 -4 6 3 10 8 10 11 0 2 -4 4 -10 4 -5 0
-10 -5 -10 -11z"/>
<path d="M18256 35499 c7 -13 54 -16 54 -5 0 7 -13 12 -29 11 -16 0 -27 -3
-25 -6z"/>
<path d="M26048 31643 c7 -3 16 -2 19 1 4 3 -2 6 -13 5 -11 0 -14 -3 -6 -6z"/>
<path d="M40016 31747 c3 -10 9 -15 12 -12 3 3 0 11 -7 18 -10 9 -11 8 -5 -6z"/>
<path d="M41057 30717 c-3 -8 -2 -20 3 -26 5 -9 8 -4 8 13 0 29 -3 32 -11 13z"/>
<path d="M16620 27820 c0 -5 5 -10 11 -10 5 0 7 5 4 10 -3 6 -8 10 -11 10 -2
0 -4 -4 -4 -10z"/>
<path d="M16613 26593 c4 -3 1 -13 -5 -22 -8 -10 -4 -9 10 3 26 23 27 26 5 26
-9 0 -13 -3 -10 -7z"/>
<path d="M33316 25792 c-2 -4 4 -8 15 -8 10 0 19 4 19 8 0 4 -6 8 -14 8 -8 0
-17 -4 -20 -8z"/>
<path d="M33155 23631 c-3 -5 -2 -12 3 -15 5 -3 9 1 9 9 0 17 -3 19 -12 6z"/>
<path d="M23214 18427 c-7 -4 -19 -17 -25 -28 -8 -17 -7 -23 8 -35 16 -13 16
-13 1 -8 -16 6 -18 -3 -18 -92 0 -155 8 -201 38 -220 25 -17 26 -16 55 17 29
34 29 34 22 134 -4 58 -11 103 -18 107 -20 12 -6 13 121 10 l122 -3 0 -106 0
-106 45 -44 c25 -24 50 -41 55 -38 6 4 10 77 10 170 l0 164 -31 36 c-31 35
-59 46 -59 23 0 -9 -3 -8 -10 2 -7 12 -40 16 -155 20 -81 3 -153 1 -161 -3z"/>
<path d="M23717 18395 c-22 -21 -21 -34 1 -52 16 -14 16 -14 0 -9 -17 5 -18
-6 -18 -142 l0 -148 28 -21 29 -21 26 33 c25 32 27 40 27 139 0 64 -4 106 -10
106 -5 0 -10 3 -10 8 0 7 190 5 228 -3 21 -5 22 -10 22 -108 l0 -103 45 -44
c68 -67 74 -55 66 147 l-6 163 -32 32 c-26 26 -35 29 -46 19 -12 -9 -16 -9
-19 1 -4 10 -44 14 -160 16 -134 3 -157 1 -171 -13z"/>
<path d="M24433 18375 c-23 -16 -32 -55 -13 -55 6 0 10 -4 10 -10 0 -5 -7 -7
-17 -3 -15 6 -15 -6 -9 -143 7 -132 10 -152 29 -172 l21 -22 33 32 33 32 0
107 c0 77 -4 109 -12 112 -29 10 3 12 120 9 l122 -4 0 -104 0 -104 44 -46 c25
-25 51 -44 58 -42 10 4 14 44 16 171 l2 166 -31 35 c-32 37 -54 45 -62 24 -3
-8 -6 -6 -6 5 -1 15 -13 17 -100 17 -54 0 -125 3 -157 6 -46 4 -64 2 -81 -11z"/>
<path d="M23197 18023 c-4 -3 -7 -71 -7 -150 0 -129 2 -143 18 -144 10 0 12
-3 5 -6 -22 -8 -14 -38 17 -68 30 -28 33 -29 182 -37 108 -6 154 -6 156 2 3 8
8 7 18 -1 11 -9 19 -8 34 6 18 17 20 31 20 180 l0 161 -29 28 -28 27 -31 -35
-30 -35 5 -123 c2 -68 1 -118 -4 -112 -4 7 -54 15 -110 19 -118 8 -113 3 -113
128 0 77 0 78 -41 122 -42 45 -50 50 -62 38z"/>
<path d="M23712 17998 c-13 -13 -16 -103 -5 -222 5 -65 9 -76 22 -71 13 4 13
2 -1 -9 -25 -19 -23 -27 15 -64 32 -31 35 -31 147 -37 63 -3 134 -8 158 -10
34 -4 42 -2 42 12 0 15 2 15 13 -2 13 -17 15 -17 35 3 21 21 22 32 22 181 0
155 -1 161 -24 188 l-25 28 -36 -35 -37 -35 6 -125 c5 -85 4 -120 -3 -110 -8
11 -36 16 -116 18 l-105 4 0 101 0 102 -46 48 c-25 26 -46 47 -48 47 -1 0 -7
-5 -14 -12z"/>
<path d="M24416 17964 c-3 -9 -6 -78 -6 -155 0 -124 2 -139 17 -139 16 0 15
-1 -1 -13 -23 -17 -13 -40 32 -70 34 -23 49 -26 190 -32 111 -6 152 -4 152 4
0 8 6 8 21 -1 17 -11 22 -10 35 6 11 15 14 57 14 186 0 165 0 167 -25 190
l-25 24 -30 -29 -30 -29 -1 -135 c-1 -75 -3 -129 -6 -120 -3 13 -25 17 -111
23 -65 4 -109 12 -114 19 -4 7 -8 53 -8 103 l0 91 -41 47 c-44 50 -54 54 -63
30z"/>
<path d="M24230 17645 c0 -33 4 -45 15 -45 8 0 15 -7 15 -15 0 -11 11 -15 40
-15 l40 0 0 45 c0 25 -4 45 -10 45 -5 0 -10 7 -10 15 0 11 -12 15 -45 15 l-45
0 0 -45z"/>
</g>
</svg>
