<svg width="60" height="62" viewBox="0 0 60 62" fill="none" xmlns="http://www.w3.org/2000/svg">
<path d="M30 22V33.25M30 3.14282C23.5485 9.25269 14.8369 13.0001 5.25 13.0001C5.09767 13.0001 4.94556 12.9991 4.79368 12.9972C3.62969 16.5376 3 20.3203 3 24.2502C3 41.0248 14.473 55.1197 30 59.1161C45.527 55.1197 57 41.0248 57 24.2502C57 20.3203 56.3703 16.5376 55.2063 12.9972C55.0544 12.9991 54.9023 13.0001 54.75 13.0001C45.1631 13.0001 36.4515 9.25269 30 3.14282ZM30 42.25H30.0225V42.2725H30V42.25Z" stroke="#0F172A" stroke-width="4.5" stroke-linecap="round" stroke-linejoin="round"/>
</svg>
