<svg width="54" height="64" viewBox="0 0 54 64" fill="none" xmlns="http://www.w3.org/2000/svg">
<path d="M35.2212 23.0137L34.1827 50.0137M19.8173 50.0137L18.7788 23.0137M48.6829 13.3854C49.7089 13.5403 50.7313 13.7061 51.75 13.8825M48.6829 13.3854L45.4794 55.0314C45.2089 58.5481 42.2764 61.2637 38.7493 61.2637H15.2507C11.7236 61.2637 8.79111 58.5481 8.52059 55.0314L5.31705 13.3854M48.6829 13.3854C45.2437 12.866 41.7645 12.4682 38.25 12.1966M2.25 13.8825C3.26872 13.7061 4.29111 13.5403 5.31705 13.3854M5.31705 13.3854C8.75633 12.866 12.2355 12.4682 15.75 12.1966M38.25 12.1966V9.44823C38.25 5.91014 35.518 2.95637 31.9818 2.84324C30.3277 2.79033 28.6669 2.76367 27 2.76367C25.3331 2.76367 23.6723 2.79033 22.0182 2.84324C18.482 2.95637 15.75 5.91014 15.75 9.44823V12.1966M38.25 12.1966C34.5377 11.9098 30.7859 11.7637 27 11.7637C23.2141 11.7637 19.4623 11.9098 15.75 12.1966" stroke="#0F172A" stroke-width="4.5" stroke-linecap="round" stroke-linejoin="round"/>
</svg>
