<svg width="64" height="51" viewBox="0 0 64 51" fill="none" xmlns="http://www.w3.org/2000/svg">
<path d="M20.75 43.2637C20.75 45.749 18.7353 47.7637 16.25 47.7637C13.7647 47.7637 11.75 45.749 11.75 43.2637M20.75 43.2637C20.75 40.7784 18.7353 38.7637 16.25 38.7637C13.7647 38.7637 11.75 40.7784 11.75 43.2637M20.75 43.2637H38.75M11.75 43.2637H6.125C4.26104 43.2637 2.75 41.7526 2.75 39.8887V29.765M54.5 43.2637C54.5 45.749 52.4853 47.7637 50 47.7637C47.5147 47.7637 45.5 45.749 45.5 43.2637M54.5 43.2637C54.5 40.7784 52.4853 38.7637 50 38.7637C47.5147 38.7637 45.5 40.7784 45.5 43.2637M54.5 43.2637L57.875 43.2636C59.7389 43.2636 61.261 41.7508 61.1463 39.8904C60.5162 29.6676 57.0418 20.2143 51.5048 12.3122C50.4182 10.7614 48.6587 9.83689 46.768 9.73313H38.75M45.5 43.2637H38.75M38.75 9.73313V6.85804C38.75 5.15557 37.4824 3.71529 35.7891 3.53956C30.846 3.02659 25.8287 2.76367 20.75 2.76367C15.6713 2.76367 10.654 3.02659 5.71093 3.53956C4.01755 3.71529 2.75 5.15557 2.75 6.85804V29.765M38.75 9.73313V29.765M38.75 43.2637V29.765M38.75 29.765H2.75" stroke="#0F172A" stroke-width="4.5" stroke-linecap="round" stroke-linejoin="round"/>
</svg>
