<svg width="64" height="60" viewBox="0 0 64 60" fill="none" xmlns="http://www.w3.org/2000/svg">
<path d="M56.75 19.5468C59.4022 20.4001 61.25 22.9313 61.25 25.8383V38.695C61.25 42.1049 58.7078 44.9965 55.3092 45.2738C54.2924 45.3568 53.2727 45.4294 52.25 45.4914V54.7637L43.25 45.7637C39.1888 45.7636 35.1668 45.5981 31.1907 45.2735C30.2957 45.2005 29.4602 44.9462 28.7148 44.5489M56.75 19.5468C56.2958 19.4006 55.8179 19.3037 55.3218 19.2625C51.3415 18.9322 47.3154 18.7637 43.2499 18.7637C39.1845 18.7637 35.1584 18.9321 31.1783 19.2625C27.785 19.5441 25.25 22.4334 25.25 25.8383V38.6948C25.25 41.2067 26.6296 43.4374 28.7148 44.5489M56.75 19.5468V13.9256C56.75 9.06135 53.2948 4.84561 48.471 4.2194C42.3435 3.42394 36.0951 3.01367 29.7509 3.01367C23.406 3.01367 17.157 3.42402 11.0289 4.21964C6.20519 4.84591 2.75 9.06161 2.75 13.9258V32.6016C2.75 37.4658 6.2052 41.6815 11.0289 42.3078C12.7598 42.5325 14.5004 42.7265 16.25 42.8892V57.0137L28.7148 44.5489" stroke="#0F172A" stroke-width="4.5" stroke-linecap="round" stroke-linejoin="round"/>
</svg>
