<svg width="72" height="73" viewBox="0 0 72 73" fill="none" xmlns="http://www.w3.org/2000/svg">
<path fill-rule="evenodd" clip-rule="evenodd" d="M6.75 36.0137C6.75 19.8593 19.8457 6.76367 36 6.76367C52.1543 6.76367 65.25 19.8593 65.25 36.0137C65.25 52.168 52.1543 65.2637 36 65.2637C19.8457 65.2637 6.75 52.168 6.75 36.0137ZM46.8309 30.5715C47.5532 29.5603 47.319 28.155 46.3078 27.4328C45.2966 26.7105 43.8914 26.9447 43.1691 27.9559L33.4629 41.5446L28.591 36.6727C27.7123 35.794 26.2877 35.794 25.409 36.6727C24.5303 37.5514 24.5303 38.976 25.409 39.8547L32.159 46.6047C32.6267 47.0723 33.2764 47.3106 33.9356 47.256C34.5947 47.2015 35.1965 46.8597 35.5809 46.3215L46.8309 30.5715Z" fill="#0F172A"/>
</svg>
