<svg width="64" height="50" viewBox="0 0 64 50" fill="none" xmlns="http://www.w3.org/2000/svg">
<path d="M41 16.0209H52.25M41 25.0209H52.25M41 34.0209H52.25M9.5 47.5209H54.5C58.2279 47.5209 61.25 44.4988 61.25 40.7709V9.27087C61.25 5.54295 58.2279 2.52087 54.5 2.52087H9.5C5.77208 2.52087 2.75 5.54295 2.75 9.27087V40.7709C2.75 44.4988 5.77208 47.5209 9.5 47.5209ZM27.5 17.1459C27.5 20.2525 24.9816 22.7709 21.875 22.7709C18.7684 22.7709 16.25 20.2525 16.25 17.1459C16.25 14.0393 18.7684 11.5209 21.875 11.5209C24.9816 11.5209 27.5 14.0393 27.5 17.1459ZM31.3816 36.155C28.5468 37.6651 25.3106 38.5209 21.8745 38.5209C18.4384 38.5209 15.2022 37.6651 12.3674 36.155C13.7896 32.2831 17.5095 29.5209 21.8745 29.5209C26.2396 29.5209 29.9595 32.2831 31.3816 36.155Z" stroke="#0F172A" stroke-width="4.5" stroke-linecap="round" stroke-linejoin="round"/>
</svg>
