<svg width="60" height="60" viewBox="0 0 60 60" fill="none" xmlns="http://www.w3.org/2000/svg">
<path d="M21 32.2637L27.75 39.0137L39 23.2637M57 30.0137C57 33.8185 55.1112 37.1822 52.22 39.2182C52.8242 42.7018 51.7813 46.4154 49.0912 49.1055C46.4011 51.7955 42.6877 52.8385 39.204 52.2343C37.168 55.1251 33.8046 57.0137 30 57.0137C26.1956 57.0137 22.8322 55.1252 20.7961 52.2346C17.312 52.8394 13.5977 51.7966 10.9071 49.1061C8.21659 46.4155 7.17374 42.7013 7.77858 39.2172C4.88822 37.1811 3 33.8179 3 30.0137C3 26.2093 4.88838 22.846 7.77893 20.8099C7.17441 17.3261 8.21731 13.6122 10.9076 10.9219C13.598 8.23154 17.3119 7.18865 20.7958 7.79323C22.8318 4.90232 26.1954 3.01367 30 3.01367C33.8045 3.01367 37.1679 4.90217 39.2039 7.79287C42.6881 7.18801 46.4023 8.23084 49.0929 10.9214C51.7834 13.6119 52.8262 17.3261 52.2214 20.8102C55.1118 22.8463 57 26.2095 57 30.0137Z" stroke="#0F172A" stroke-width="4.5" stroke-linecap="round" stroke-linejoin="round"/>
</svg>
