<svg width="72" height="72" viewBox="0 0 72 72" fill="none" xmlns="http://www.w3.org/2000/svg">
<path d="M35.999 38.2568C39.4445 38.2568 42.8335 38.4989 46.1498 38.9668C49.2589 39.4055 51.7478 41.867 51.7478 45.0068C51.7478 56.1906 44.6963 65.2568 35.9978 65.2568C27.2993 65.2568 20.2478 56.1906 20.2478 45.0068C20.2478 41.8673 22.7364 39.4061 25.845 38.9673C29.1624 38.499 32.5525 38.2568 35.999 38.2568ZM35.999 38.2568C44.6474 38.2568 52.9406 39.7816 60.6225 42.577C60.2489 48.8903 59.0618 54.9847 57.1646 60.7568M35.999 38.2568C27.3507 38.2568 19.0594 39.7816 11.3774 42.577C11.7511 48.8903 12.9382 54.9847 14.8354 60.7568M35.999 38.2568C39.727 38.2568 42.7494 35.2348 42.7494 31.5068C42.7494 31.4024 42.747 31.2985 42.7424 31.1952M35.999 38.2568C32.2711 38.2568 29.2494 35.2348 29.2494 31.5068C29.2494 31.4024 29.2517 31.2985 29.2564 31.1952M36.0005 24.7568C38.9851 24.7568 41.9131 24.5147 44.766 24.049C45.9737 23.8519 46.9883 22.9755 47.1505 21.7627C47.2164 21.2701 47.2505 20.7675 47.2505 20.2568C47.2505 18.3622 46.7821 16.5769 45.9548 15.0105M36.0005 24.7568C33.0159 24.7568 30.0878 24.5147 27.2349 24.049C26.0273 23.8519 25.0126 22.9755 24.8504 21.7627C24.7845 21.2701 24.7505 20.7675 24.7505 20.2568C24.7505 18.3593 25.2202 16.5716 26.0498 15.0035M36.0005 24.7568C32.377 24.7568 29.4192 27.612 29.2564 31.1952M36.0005 24.7568C39.624 24.7568 42.5795 27.612 42.7424 31.1952M26.0498 15.0035C24.7696 14.1517 23.6047 13.1405 22.5835 11.998C22.794 10.1053 23.3958 8.33064 24.3062 6.75684M26.0498 15.0035C27.9366 11.4369 31.6848 9.00684 36.0005 9.00684C40.319 9.00684 44.0692 11.4401 45.9548 15.0105M45.9548 15.0105C47.2336 14.161 48.3975 13.1523 49.4184 12.0129C49.2094 10.1146 48.6068 8.33475 47.6941 6.75684M14.7629 18.0068C14.1478 21.2494 13.7502 24.569 13.5857 27.9497C18.5901 29.5876 23.8361 30.6918 29.2564 31.1952M57.2358 18.0068C57.8509 21.2494 58.2485 24.569 58.413 27.9497C53.4086 29.5876 48.1626 30.6918 42.7424 31.1952" stroke="#0F172A" stroke-width="4.5" stroke-linecap="round" stroke-linejoin="round"/>
</svg>
